<svg xmlns="http://www.w3.org/2000/svg" xmlns:xlink="http://www.w3.org/1999/xlink" width="300" zoomAndPan="magnify" viewBox="0 0 224.87999 67.499998" height="90" preserveAspectRatio="xMidYMid meet" version="1.0"><defs><clipPath id="7df3838a27"><path d="M 34.929688 9.726562 L 74 9.726562 L 74 53 L 34.929688 53 Z M 34.929688 9.726562 " clip-rule="nonzero"/></clipPath><clipPath id="d9e32385c7"><path d="M 169 26 L 189.78125 26 L 189.78125 53.652344 L 169 53.652344 Z M 169 26 " clip-rule="nonzero"/></clipPath></defs><g clip-path="url(#7df3838a27)"><path fill="#95bf47" d="M 68.367188 18.058594 C 68.335938 17.839844 68.144531 17.71875 67.984375 17.707031 C 67.828125 17.691406 64.75 17.644531 64.75 17.644531 C 64.75 17.644531 62.171875 15.144531 61.917969 14.890625 C 61.664062 14.636719 61.167969 14.710938 60.972656 14.769531 C 60.972656 14.769531 60.492188 14.917969 59.679688 15.171875 C 59.546875 14.730469 59.347656 14.191406 59.0625 13.648438 C 58.144531 11.898438 56.800781 10.972656 55.179688 10.972656 C 55.175781 10.972656 55.175781 10.972656 55.171875 10.972656 C 55.058594 10.972656 54.949219 10.980469 54.835938 10.992188 C 54.789062 10.933594 54.738281 10.878906 54.6875 10.824219 C 53.980469 10.066406 53.074219 9.699219 51.988281 9.730469 C 49.894531 9.789062 47.808594 11.304688 46.113281 13.992188 C 44.925781 15.882812 44.019531 18.261719 43.761719 20.101562 C 41.355469 20.84375 39.671875 21.367188 39.636719 21.378906 C 38.421875 21.757812 38.382812 21.796875 38.222656 22.941406 C 38.105469 23.808594 34.929688 48.382812 34.929688 48.382812 L 61.5625 52.988281 L 73.105469 50.117188 C 73.105469 50.117188 68.394531 18.277344 68.367188 18.058594 Z M 58.347656 15.582031 C 57.734375 15.773438 57.035156 15.988281 56.28125 16.222656 C 56.265625 15.164062 56.140625 13.6875 55.644531 12.410156 C 57.234375 12.710938 58.015625 14.511719 58.347656 15.582031 Z M 54.886719 16.65625 C 53.492188 17.085938 51.96875 17.558594 50.441406 18.03125 C 50.871094 16.386719 51.683594 14.75 52.6875 13.675781 C 53.058594 13.273438 53.578125 12.828125 54.195312 12.574219 C 54.777344 13.785156 54.902344 15.496094 54.886719 16.65625 Z M 52.03125 11.125 C 52.523438 11.113281 52.9375 11.222656 53.292969 11.453125 C 52.726562 11.75 52.179688 12.171875 51.664062 12.722656 C 50.332031 14.152344 49.3125 16.367188 48.90625 18.507812 C 47.636719 18.898438 46.398438 19.285156 45.253906 19.636719 C 45.976562 16.269531 48.796875 11.21875 52.03125 11.125 Z M 52.03125 11.125 " fill-opacity="1" fill-rule="nonzero"/></g><path fill="#5e8e3e" d="M 67.988281 17.707031 C 67.828125 17.695312 64.75 17.648438 64.75 17.648438 C 64.75 17.648438 62.175781 15.144531 61.921875 14.890625 C 61.824219 14.796875 61.695312 14.746094 61.5625 14.726562 L 61.5625 52.988281 L 73.105469 50.117188 C 73.105469 50.117188 68.394531 18.277344 68.367188 18.058594 C 68.335938 17.839844 68.144531 17.71875 67.988281 17.707031 Z M 67.988281 17.707031 " fill-opacity="1" fill-rule="nonzero"/><path fill="#ffffff" d="M 55.164062 23.640625 L 53.824219 28.65625 C 53.824219 28.65625 52.328125 27.976562 50.554688 28.089844 C 47.957031 28.253906 47.929688 29.890625 47.953125 30.304688 C 48.097656 32.546875 53.996094 33.035156 54.328125 38.292969 C 54.589844 42.425781 52.136719 45.253906 48.601562 45.476562 C 44.359375 45.742188 42.023438 43.242188 42.023438 43.242188 L 42.921875 39.417969 C 42.921875 39.417969 45.273438 41.191406 47.15625 41.070312 C 48.382812 40.992188 48.824219 39.992188 48.78125 39.289062 C 48.59375 36.359375 43.789062 36.535156 43.484375 31.726562 C 43.230469 27.679688 45.886719 23.582031 51.75 23.210938 C 54.007812 23.066406 55.164062 23.640625 55.164062 23.640625 Z M 55.164062 23.640625 " fill-opacity="1" fill-rule="nonzero"/><path fill="#1e1e1e" d="M 88.304688 34.144531 C 86.976562 33.425781 86.296875 32.816406 86.296875 31.980469 C 86.296875 30.921875 87.242188 30.238281 88.722656 30.238281 C 90.445312 30.238281 91.984375 30.957031 91.984375 30.957031 L 93.195312 27.242188 C 93.195312 27.242188 92.082031 26.371094 88.796875 26.371094 C 84.230469 26.371094 81.0625 28.984375 81.0625 32.664062 C 81.0625 34.75 82.542969 36.34375 84.515625 37.480469 C 86.105469 38.390625 86.675781 39.035156 86.675781 39.980469 C 86.675781 40.96875 85.878906 41.765625 84.402344 41.765625 C 82.199219 41.765625 80.117188 40.625 80.117188 40.625 L 78.828125 44.34375 C 78.828125 44.34375 80.75 45.632812 83.984375 45.632812 C 88.6875 45.632812 92.0625 43.320312 92.0625 39.148438 C 92.058594 36.910156 90.355469 35.320312 88.304688 34.144531 Z M 88.304688 34.144531 " fill-opacity="1" fill-rule="nonzero"/><path fill="#1e1e1e" d="M 107.039062 26.332031 C 104.726562 26.332031 102.90625 27.433594 101.503906 29.101562 L 101.425781 29.0625 L 103.433594 18.558594 L 98.203125 18.558594 L 93.121094 45.289062 L 98.355469 45.289062 L 100.097656 36.152344 C 100.78125 32.703125 102.5625 30.578125 104.230469 30.578125 C 105.40625 30.578125 105.863281 31.375 105.863281 32.515625 C 105.863281 33.234375 105.785156 34.105469 105.636719 34.828125 L 103.664062 45.292969 L 108.898438 45.292969 L 110.945312 34.484375 C 111.171875 33.347656 111.324219 31.984375 111.324219 31.074219 C 111.320312 28.113281 109.769531 26.332031 107.039062 26.332031 Z M 107.039062 26.332031 " fill-opacity="1" fill-rule="nonzero"/><path fill="#1e1e1e" d="M 123.152344 26.332031 C 116.855469 26.332031 112.6875 32.019531 112.6875 38.351562 C 112.6875 42.410156 115.191406 45.667969 119.890625 45.667969 C 126.074219 45.667969 130.242188 40.132812 130.242188 33.648438 C 130.242188 29.898438 128.042969 26.332031 123.152344 26.332031 Z M 120.574219 41.652344 C 118.792969 41.652344 118.03125 40.136719 118.03125 38.238281 C 118.03125 35.242188 119.589844 30.351562 122.433594 30.351562 C 124.289062 30.351562 124.894531 31.945312 124.894531 33.5 C 124.894531 36.722656 123.34375 41.652344 120.574219 41.652344 Z M 120.574219 41.652344 " fill-opacity="1" fill-rule="nonzero"/><path fill="#1e1e1e" d="M 143.628906 26.332031 C 140.097656 26.332031 138.089844 29.441406 138.089844 29.441406 L 138.015625 29.441406 L 138.320312 26.636719 L 133.695312 26.636719 C 133.46875 28.53125 133.046875 31.414062 132.632812 33.574219 L 128.992188 52.722656 L 134.226562 52.722656 L 135.664062 44.988281 L 135.78125 44.988281 C 135.78125 44.988281 136.855469 45.667969 138.851562 45.667969 C 144.992188 45.667969 149.011719 39.375 149.011719 33.003906 C 149.011719 29.480469 147.457031 26.332031 143.628906 26.332031 Z M 138.621094 41.726562 C 137.265625 41.726562 136.460938 40.96875 136.460938 40.96875 L 137.332031 36.078125 C 137.941406 32.816406 139.644531 30.65625 141.464844 30.65625 C 143.058594 30.65625 143.550781 32.132812 143.550781 33.535156 C 143.550781 36.910156 141.542969 41.726562 138.621094 41.726562 Z M 138.621094 41.726562 " fill-opacity="1" fill-rule="nonzero"/><path fill="#1e1e1e" d="M 156.480469 18.824219 C 154.8125 18.824219 153.488281 20.152344 153.488281 21.859375 C 153.488281 23.414062 154.472656 24.472656 155.953125 24.472656 L 156.027344 24.472656 C 157.65625 24.472656 159.058594 23.375 159.097656 21.441406 C 159.097656 19.925781 158.074219 18.824219 156.480469 18.824219 Z M 156.480469 18.824219 " fill-opacity="1" fill-rule="nonzero"/><path fill="#1e1e1e" d="M 149.164062 45.289062 L 154.394531 45.289062 L 157.960938 26.75 L 152.691406 26.75 Z M 149.164062 45.289062 " fill-opacity="1" fill-rule="nonzero"/><path fill="#1e1e1e" d="M 171.269531 26.710938 L 167.628906 26.710938 L 167.820312 25.839844 C 168.121094 24.058594 169.183594 22.464844 170.929688 22.464844 C 171.859375 22.464844 172.597656 22.730469 172.597656 22.730469 L 173.621094 18.636719 C 173.621094 18.636719 172.710938 18.179688 170.777344 18.179688 C 168.917969 18.179688 167.0625 18.710938 165.65625 19.925781 C 163.875 21.441406 163.042969 23.640625 162.625 25.839844 L 162.472656 26.710938 L 160.046875 26.710938 L 159.289062 30.65625 L 161.714844 30.65625 L 158.945312 45.292969 L 164.179688 45.292969 L 166.949219 30.65625 L 170.550781 30.65625 Z M 171.269531 26.710938 " fill-opacity="1" fill-rule="nonzero"/><g clip-path="url(#d9e32385c7)"><path fill="#1e1e1e" d="M 183.859375 26.75 C 183.859375 26.75 180.585938 34.992188 179.117188 39.488281 L 179.042969 39.488281 C 178.941406 38.042969 177.753906 26.75 177.753906 26.75 L 172.253906 26.75 L 175.402344 43.773438 C 175.480469 44.152344 175.441406 44.382812 175.289062 44.648438 C 174.683594 45.820312 173.660156 46.960938 172.445312 47.792969 C 171.460938 48.515625 170.359375 48.96875 169.488281 49.273438 L 170.929688 53.710938 C 171.992188 53.480469 174.1875 52.609375 176.046875 50.867188 C 178.4375 48.628906 180.636719 45.179688 182.910156 40.476562 L 189.316406 26.75 Z M 183.859375 26.75 " fill-opacity="1" fill-rule="nonzero"/></g></svg>