<svg xmlns="http://www.w3.org/2000/svg" xmlns:xlink="http://www.w3.org/1999/xlink" width="300" zoomAndPan="magnify" viewBox="0 0 224.87999 67.499998" height="90" preserveAspectRatio="xMidYMid meet" version="1.0"><defs><clipPath id="01de42e96c"><path d="M 32.492188 12.714844 L 92 12.714844 L 92 54 L 32.492188 54 Z M 32.492188 12.714844 " clip-rule="nonzero"/></clipPath><clipPath id="40340bde3b"><path d="M 179 17 L 192.558594 17 L 192.558594 32 L 179 32 Z M 179 17 " clip-rule="nonzero"/></clipPath><clipPath id="b32c9d2856"><path d="M 125 36 L 138 36 L 138 54.40625 L 125 54.40625 Z M 125 36 " clip-rule="nonzero"/></clipPath></defs><g clip-path="url(#01de42e96c)"><path fill="#0a0080" d="M 91.175781 31.851562 C 91.175781 21.300781 78.03125 12.714844 61.910156 12.714844 C 45.71875 12.714844 32.648438 21.300781 32.648438 31.851562 C 32.648438 32.140625 32.648438 32.871094 32.648438 32.941406 C 32.648438 44.148438 44.121094 53.242188 61.910156 53.242188 C 79.847656 53.242188 91.175781 44.148438 91.175781 32.941406 Z M 91.175781 31.851562 " fill-opacity="1" fill-rule="nonzero"/></g><path fill="#2abcff" d="M 90.015625 31.851562 C 90.015625 41.820312 77.453125 49.894531 61.910156 49.894531 C 46.371094 49.894531 33.808594 41.820312 33.808594 31.851562 C 33.808594 21.882812 46.371094 13.808594 61.910156 13.808594 C 77.453125 13.878906 90.015625 21.882812 90.015625 31.851562 " fill-opacity="1" fill-rule="nonzero"/><path fill="#ffffff" d="M 52.542969 26.175781 C 52.542969 26.175781 52.253906 26.46875 52.398438 26.757812 C 52.835938 27.339844 54.214844 27.632812 55.59375 27.339844 C 56.394531 27.121094 57.480469 26.320312 58.5 25.519531 C 59.589844 24.648438 60.675781 23.773438 61.839844 23.410156 C 63 23.046875 63.726562 23.191406 64.234375 23.339844 C 64.816406 23.484375 65.398438 23.847656 66.414062 24.648438 C 68.375 26.101562 76.070312 32.871094 77.378906 34.035156 C 78.46875 33.523438 83.261719 31.488281 89.722656 30.03125 C 89.289062 26.539062 87.183594 23.339844 83.988281 20.71875 C 79.558594 22.609375 74.109375 23.554688 68.738281 20.9375 C 68.738281 20.9375 65.832031 19.554688 63 19.628906 C 58.789062 19.699219 56.972656 21.59375 55.011719 23.484375 Z M 52.542969 26.175781 " fill-opacity="1" fill-rule="nonzero"/><path fill="#ffffff" d="M 77.160156 34.6875 C 77.089844 34.617188 68.085938 26.683594 66.050781 25.15625 C 64.890625 24.285156 64.234375 24.066406 63.507812 23.921875 C 63.144531 23.847656 62.636719 23.921875 62.273438 24.066406 C 61.332031 24.355469 60.097656 25.15625 59.007812 26.03125 C 57.84375 26.976562 56.757812 27.777344 55.8125 27.996094 C 54.578125 28.359375 52.980469 27.996094 52.253906 27.558594 C 51.964844 27.339844 51.746094 27.121094 51.671875 26.902344 C 51.382812 26.320312 51.890625 25.8125 51.964844 25.738281 L 54.433594 23.046875 C 54.722656 22.757812 55.011719 22.464844 55.304688 22.175781 C 54.503906 22.246094 53.777344 22.464844 53.050781 22.683594 C 52.179688 22.902344 51.308594 23.191406 50.4375 23.191406 C 50.074219 23.191406 48.113281 22.902344 47.75 22.757812 C 45.5 22.175781 43.539062 21.519531 40.5625 20.136719 C 37.003906 22.757812 34.679688 26.03125 34.027344 29.667969 C 34.535156 29.8125 35.335938 30.03125 35.699219 30.105469 C 43.683594 31.851562 46.152344 33.742188 46.664062 34.105469 C 47.171875 33.597656 47.824219 33.234375 48.625 33.234375 C 49.496094 33.234375 50.292969 33.671875 50.800781 34.398438 C 51.238281 34.035156 51.890625 33.742188 52.691406 33.742188 C 53.050781 33.742188 53.414062 33.816406 53.851562 33.960938 C 54.722656 34.253906 55.230469 34.90625 55.449219 35.417969 C 55.738281 35.269531 56.101562 35.199219 56.539062 35.199219 C 56.972656 35.199219 57.410156 35.269531 57.84375 35.488281 C 59.296875 36.144531 59.515625 37.597656 59.441406 38.691406 C 59.515625 38.691406 59.660156 38.691406 59.734375 38.691406 C 61.476562 38.691406 62.929688 40.144531 62.929688 41.890625 C 62.929688 42.402344 62.78125 42.910156 62.566406 43.421875 C 63.074219 43.710938 64.234375 44.292969 65.324219 44.148438 C 66.195312 44.074219 66.488281 43.785156 66.632812 43.566406 C 66.703125 43.421875 66.777344 43.347656 66.703125 43.203125 L 64.453125 40.65625 C 64.453125 40.65625 64.089844 40.292969 64.234375 40.144531 C 64.378906 40 64.597656 40.21875 64.742188 40.363281 C 65.90625 41.308594 67.285156 42.765625 67.285156 42.765625 C 67.285156 42.765625 67.429688 42.984375 67.9375 43.054688 C 68.375 43.128906 69.171875 43.054688 69.753906 42.621094 C 69.898438 42.472656 70.042969 42.328125 70.117188 42.183594 C 70.699219 41.457031 70.042969 40.726562 70.042969 40.726562 L 67.429688 37.746094 C 67.429688 37.746094 67.066406 37.382812 67.210938 37.234375 C 67.359375 37.089844 67.574219 37.308594 67.722656 37.453125 C 68.519531 38.179688 69.753906 39.34375 70.84375 40.4375 C 71.0625 40.582031 72.078125 41.238281 73.386719 40.363281 C 74.183594 39.855469 74.328125 39.199219 74.328125 38.691406 C 74.257812 38.035156 73.746094 37.597656 73.746094 37.597656 L 70.117188 33.960938 C 70.117188 33.960938 69.753906 33.671875 69.898438 33.453125 C 70.042969 33.304688 70.261719 33.523438 70.40625 33.671875 C 71.570312 34.617188 74.691406 37.453125 74.691406 37.453125 C 74.765625 37.453125 75.78125 38.253906 77.160156 37.382812 C 77.667969 37.089844 77.960938 36.652344 77.960938 36.070312 C 77.816406 35.269531 77.160156 34.6875 77.160156 34.6875 " fill-opacity="1" fill-rule="nonzero"/><path fill="#ffffff" d="M 59.734375 39.273438 C 59.152344 39.273438 58.570312 39.5625 58.5 39.5625 C 58.425781 39.5625 58.5 39.34375 58.570312 39.199219 C 58.644531 39.054688 59.371094 36.871094 57.554688 36.070312 C 56.175781 35.488281 55.375 36.144531 55.085938 36.433594 C 55.011719 36.507812 54.941406 36.507812 54.941406 36.433594 C 54.941406 36.070312 54.722656 34.980469 53.5625 34.617188 C 51.890625 34.105469 50.800781 35.269531 50.511719 35.707031 C 50.367188 34.761719 49.566406 33.960938 48.550781 33.960938 C 47.460938 33.960938 46.589844 34.835938 46.589844 35.925781 C 46.589844 37.015625 47.460938 37.890625 48.550781 37.890625 C 49.058594 37.890625 49.566406 37.671875 49.929688 37.308594 C 49.929688 37.308594 49.929688 37.308594 49.929688 37.382812 C 49.859375 37.890625 49.710938 39.636719 51.527344 40.363281 C 52.253906 40.65625 52.90625 40.4375 53.414062 40.074219 C 53.5625 39.925781 53.5625 40 53.5625 40.144531 C 53.488281 40.582031 53.5625 41.601562 54.941406 42.109375 C 55.957031 42.546875 56.609375 42.109375 56.972656 41.746094 C 57.117188 41.601562 57.191406 41.601562 57.191406 41.890625 C 57.265625 43.203125 58.355469 44.21875 59.660156 44.21875 C 61.039062 44.21875 62.128906 43.128906 62.128906 41.746094 C 62.203125 40.4375 61.113281 39.34375 59.734375 39.273438 " fill-opacity="1" fill-rule="nonzero"/><path fill="#0a0080" d="M 77.523438 33.742188 C 74.765625 31.34375 68.300781 25.738281 66.632812 24.429688 C 65.613281 23.703125 64.960938 23.265625 64.378906 23.121094 C 64.089844 23.046875 63.726562 22.972656 63.292969 22.972656 C 62.855469 22.972656 62.347656 23.046875 61.910156 23.191406 C 60.824219 23.554688 59.660156 24.429688 58.570312 25.304688 L 58.5 25.375 C 57.480469 26.175781 56.464844 26.976562 55.667969 27.195312 C 55.304688 27.265625 54.941406 27.339844 54.648438 27.339844 C 53.777344 27.339844 52.980469 27.050781 52.691406 26.683594 C 52.617188 26.613281 52.691406 26.539062 52.761719 26.394531 L 55.160156 23.628906 C 57.046875 21.738281 58.863281 19.917969 63 19.847656 C 63.074219 19.847656 63.144531 19.847656 63.21875 19.847656 C 65.832031 19.847656 68.375 21.011719 68.664062 21.15625 C 71.132812 22.320312 73.601562 22.902344 76.144531 22.902344 C 78.757812 22.902344 81.445312 22.246094 84.351562 20.9375 C 84.058594 20.644531 83.695312 20.429688 83.332031 20.136719 C 80.863281 21.226562 78.46875 21.738281 76.144531 21.738281 C 73.820312 21.738281 71.425781 21.15625 69.171875 20.0625 C 69.027344 19.992188 66.195312 18.683594 63.21875 18.683594 C 63.144531 18.683594 63.074219 18.683594 63 18.683594 C 59.515625 18.753906 57.554688 19.992188 56.246094 21.082031 C 54.941406 21.082031 53.851562 21.445312 52.835938 21.738281 C 51.964844 21.957031 51.164062 22.175781 50.4375 22.175781 C 50.148438 22.175781 49.566406 22.175781 49.566406 22.175781 C 48.695312 22.175781 44.410156 21.082031 41 19.773438 C 40.636719 19.992188 40.34375 20.28125 39.980469 20.574219 C 43.539062 22.027344 47.898438 23.191406 49.277344 23.265625 C 49.640625 23.265625 50.074219 23.339844 50.4375 23.339844 C 51.308594 23.339844 52.253906 23.121094 53.125 22.828125 C 53.632812 22.683594 54.214844 22.539062 54.796875 22.390625 C 54.648438 22.539062 54.503906 22.683594 54.289062 22.902344 L 51.816406 25.59375 C 51.601562 25.8125 51.164062 26.320312 51.457031 26.976562 C 51.601562 27.265625 51.816406 27.484375 52.109375 27.703125 C 52.691406 28.066406 53.777344 28.359375 54.722656 28.359375 C 55.085938 28.359375 55.449219 28.359375 55.738281 28.214844 C 56.757812 27.996094 57.84375 27.121094 59.007812 26.175781 C 59.949219 25.449219 61.257812 24.503906 62.203125 24.210938 C 62.492188 24.140625 62.855469 24.066406 63.074219 24.066406 C 63.144531 24.066406 63.21875 24.066406 63.292969 24.066406 C 63.945312 24.140625 64.597656 24.355469 65.761719 25.230469 C 67.792969 26.757812 76.796875 34.6875 76.871094 34.761719 C 76.871094 34.761719 77.453125 35.269531 77.378906 36.070312 C 77.378906 36.507812 77.089844 36.945312 76.652344 37.234375 C 76.289062 37.453125 75.855469 37.597656 75.492188 37.597656 C 74.910156 37.597656 74.472656 37.308594 74.472656 37.308594 C 74.472656 37.308594 71.351562 34.46875 70.191406 33.523438 C 70.042969 33.378906 69.828125 33.234375 69.679688 33.234375 C 69.609375 33.234375 69.535156 33.304688 69.464844 33.378906 C 69.320312 33.597656 69.464844 33.886719 69.753906 34.105469 L 73.386719 37.746094 C 73.386719 37.746094 73.820312 38.179688 73.894531 38.691406 C 73.894531 39.273438 73.601562 39.78125 73.023438 40.21875 C 72.585938 40.507812 72.152344 40.65625 71.714844 40.65625 C 71.132812 40.65625 70.769531 40.4375 70.699219 40.363281 L 70.191406 39.855469 C 69.246094 38.910156 68.300781 37.964844 67.574219 37.382812 C 67.429688 37.234375 67.210938 37.089844 67.066406 37.089844 C 66.996094 37.089844 66.921875 37.089844 66.847656 37.164062 C 66.777344 37.234375 66.703125 37.453125 66.921875 37.671875 C 66.996094 37.816406 67.066406 37.890625 67.066406 37.890625 L 69.679688 40.875 C 69.679688 40.875 70.191406 41.527344 69.753906 42.109375 L 69.679688 42.253906 C 69.609375 42.328125 69.535156 42.402344 69.464844 42.472656 C 69.027344 42.835938 68.445312 42.910156 68.15625 42.910156 C 68.011719 42.910156 67.9375 42.910156 67.792969 42.910156 C 67.503906 42.835938 67.359375 42.765625 67.285156 42.691406 C 67.140625 42.546875 65.832031 41.164062 64.742188 40.292969 C 64.597656 40.144531 64.453125 40 64.234375 40 C 64.164062 40 64.089844 40 64.015625 40.074219 C 63.800781 40.292969 64.164062 40.65625 64.234375 40.800781 L 66.488281 43.273438 C 66.488281 43.273438 66.488281 43.347656 66.414062 43.421875 C 66.339844 43.566406 66.050781 43.785156 65.253906 43.929688 C 65.179688 43.929688 65.035156 43.929688 64.960938 43.929688 C 64.089844 43.929688 63.21875 43.492188 62.78125 43.273438 C 63 42.835938 63.074219 42.328125 63.074219 41.820312 C 63.074219 40 61.546875 38.472656 59.734375 38.472656 C 59.660156 38.472656 59.660156 38.472656 59.589844 38.472656 C 59.660156 37.597656 59.515625 36 57.917969 35.34375 C 57.480469 35.125 56.972656 35.050781 56.539062 35.050781 C 56.175781 35.050781 55.8125 35.125 55.523438 35.269531 C 55.160156 34.617188 54.648438 34.105469 53.851562 33.886719 C 53.414062 33.742188 53.050781 33.671875 52.617188 33.671875 C 51.964844 33.671875 51.308594 33.886719 50.730469 34.253906 C 50.21875 33.597656 49.347656 33.160156 48.550781 33.160156 C 47.824219 33.160156 47.097656 33.453125 46.515625 33.960938 C 45.792969 33.453125 43.03125 31.632812 35.625 29.960938 C 35.261719 29.886719 34.464844 29.667969 33.953125 29.523438 C 33.882812 29.960938 33.808594 30.324219 33.738281 30.761719 C 33.738281 30.761719 35.117188 31.125 35.40625 31.125 C 42.960938 32.796875 45.5 34.542969 45.9375 34.90625 C 45.792969 35.269531 45.71875 35.632812 45.71875 36 C 45.71875 37.597656 47.027344 38.835938 48.550781 38.835938 C 48.695312 38.835938 48.914062 38.835938 49.058594 38.761719 C 49.277344 39.925781 50.074219 40.800781 51.164062 41.238281 C 51.527344 41.382812 51.816406 41.457031 52.179688 41.457031 C 52.398438 41.457031 52.617188 41.457031 52.835938 41.382812 C 53.050781 41.890625 53.5625 42.621094 54.578125 43.054688 C 54.941406 43.203125 55.304688 43.273438 55.667969 43.273438 C 55.957031 43.273438 56.246094 43.203125 56.539062 43.128906 C 57.046875 44.367188 58.28125 45.238281 59.660156 45.238281 C 60.53125 45.238281 61.402344 44.875 62.058594 44.21875 C 62.566406 44.511719 63.726562 45.09375 64.890625 45.09375 C 65.035156 45.09375 65.179688 45.09375 65.324219 45.09375 C 66.488281 44.949219 66.996094 44.511719 67.210938 44.148438 C 67.285156 44.074219 67.285156 44.003906 67.359375 43.929688 C 67.648438 44.003906 67.9375 44.074219 68.230469 44.074219 C 68.882812 44.074219 69.464844 43.855469 70.042969 43.421875 C 70.625 42.984375 71.0625 42.402344 71.132812 41.820312 C 71.351562 41.890625 71.570312 41.890625 71.714844 41.890625 C 72.367188 41.890625 73.023438 41.671875 73.601562 41.308594 C 74.765625 40.507812 74.984375 39.5625 74.984375 38.910156 C 75.199219 38.980469 75.417969 38.980469 75.636719 38.980469 C 76.21875 38.980469 76.796875 38.761719 77.378906 38.472656 C 78.105469 38.035156 78.539062 37.308594 78.613281 36.507812 C 78.6875 35.925781 78.539062 35.417969 78.25 34.90625 C 80.210938 34.035156 84.640625 32.433594 89.941406 31.269531 C 89.941406 30.832031 89.867188 30.46875 89.796875 30.03125 C 83.476562 31.195312 78.757812 33.234375 77.523438 33.742188 M 59.734375 44.074219 C 58.5 44.074219 57.480469 43.128906 57.410156 41.890625 C 57.410156 41.820312 57.410156 41.527344 57.191406 41.527344 C 57.117188 41.527344 57.046875 41.601562 56.902344 41.671875 C 56.609375 41.890625 56.246094 42.183594 55.8125 42.183594 C 55.59375 42.183594 55.304688 42.109375 55.085938 42.039062 C 53.777344 41.527344 53.777344 40.582031 53.851562 40.21875 C 53.851562 40.144531 53.851562 40 53.777344 39.925781 L 53.707031 39.855469 L 53.632812 39.855469 C 53.5625 39.855469 53.488281 39.855469 53.414062 39.925781 C 52.980469 40.21875 52.617188 40.363281 52.253906 40.363281 C 52.035156 40.363281 51.816406 40.292969 51.601562 40.21875 C 49.859375 39.5625 50.003906 37.890625 50.074219 37.453125 C 50.074219 37.382812 50.074219 37.308594 50.003906 37.234375 L 49.859375 37.164062 L 49.710938 37.308594 C 49.347656 37.597656 48.914062 37.816406 48.476562 37.816406 C 47.460938 37.816406 46.664062 37.015625 46.664062 36 C 46.664062 34.980469 47.460938 34.179688 48.476562 34.179688 C 49.347656 34.179688 50.148438 34.835938 50.21875 35.707031 L 50.292969 36.214844 L 50.582031 35.78125 C 50.582031 35.707031 51.308594 34.617188 52.691406 34.617188 C 52.90625 34.617188 53.199219 34.6875 53.488281 34.761719 C 54.578125 35.050781 54.722656 36.070312 54.722656 36.433594 C 54.722656 36.652344 54.941406 36.652344 54.941406 36.652344 C 55.011719 36.652344 55.085938 36.582031 55.160156 36.582031 C 55.375 36.363281 55.8125 36 56.464844 36 C 56.757812 36 57.117188 36.070312 57.480469 36.214844 C 59.152344 36.945312 58.425781 39.054688 58.425781 39.128906 C 58.28125 39.492188 58.28125 39.636719 58.425781 39.710938 L 58.570312 39.710938 C 58.644531 39.710938 58.714844 39.710938 58.863281 39.636719 C 59.078125 39.5625 59.441406 39.417969 59.734375 39.417969 C 60.96875 39.417969 62.058594 40.4375 62.058594 41.746094 C 62.058594 43.054688 61.039062 44.074219 59.734375 44.074219 " fill-opacity="1" fill-rule="nonzero"/><g clip-path="url(#40340bde3b)"><path fill="#0a0080" d="M 190.804688 19.699219 C 189.714844 18.390625 188.117188 17.734375 186.011719 17.734375 C 183.832031 17.734375 182.234375 18.390625 181.21875 19.699219 C 180.128906 21.011719 179.621094 22.609375 179.621094 24.429688 C 179.621094 26.25 180.128906 27.847656 181.21875 29.160156 C 182.308594 30.46875 183.90625 31.125 186.011719 31.125 C 188.191406 31.125 189.789062 30.46875 190.804688 29.160156 C 191.894531 27.847656 192.402344 26.25 192.402344 24.429688 C 192.402344 22.539062 191.894531 21.011719 190.804688 19.699219 M 188.191406 27.265625 C 187.679688 27.921875 186.957031 28.285156 186.011719 28.285156 C 185.066406 28.285156 184.339844 27.921875 183.832031 27.265625 C 183.324219 26.613281 183.035156 25.59375 183.035156 24.355469 C 183.035156 23.121094 183.324219 22.101562 183.832031 21.445312 C 184.339844 20.792969 185.066406 20.429688 186.011719 20.429688 C 186.957031 20.429688 187.679688 20.792969 188.191406 21.445312 C 188.699219 22.101562 188.988281 23.121094 188.988281 24.355469 C 188.988281 25.59375 188.699219 26.613281 188.191406 27.265625 " fill-opacity="1" fill-rule="nonzero"/></g><path fill="#0a0080" d="M 163.863281 18.535156 C 162.773438 18.027344 161.539062 17.734375 160.160156 17.734375 C 158.054688 17.734375 156.53125 18.316406 155.65625 19.410156 C 155.078125 20.136719 154.785156 21.011719 154.714844 22.101562 L 157.910156 22.101562 C 157.980469 21.59375 158.128906 21.226562 158.34375 20.9375 C 158.636719 20.574219 159.214844 20.355469 160.015625 20.355469 C 160.742188 20.355469 161.25 20.429688 161.613281 20.644531 C 161.976562 20.863281 162.121094 21.226562 162.121094 21.738281 C 162.121094 22.175781 161.902344 22.464844 161.394531 22.683594 C 161.105469 22.828125 160.667969 22.902344 160.085938 22.972656 L 159 23.121094 C 157.691406 23.265625 156.746094 23.554688 156.09375 23.921875 C 154.859375 24.648438 154.277344 25.738281 154.277344 27.265625 C 154.277344 28.429688 154.640625 29.378906 155.367188 30.03125 C 156.09375 30.6875 157.039062 30.976562 158.199219 30.976562 C 165.386719 31.269531 165.316406 27.195312 165.316406 26.320312 L 165.316406 21.59375 C 165.460938 20.136719 164.878906 19.117188 163.863281 18.535156 M 162.195312 25.738281 C 162.195312 26.832031 161.832031 27.632812 161.25 27.996094 C 160.667969 28.429688 160.015625 28.648438 159.289062 28.648438 C 158.851562 28.648438 158.417969 28.503906 158.128906 28.285156 C 157.835938 28.066406 157.617188 27.632812 157.617188 27.050781 C 157.617188 26.394531 157.910156 25.957031 158.417969 25.667969 C 158.707031 25.519531 159.214844 25.375 159.941406 25.230469 L 160.667969 25.085938 C 161.03125 25.011719 161.320312 24.9375 161.539062 24.867188 C 161.757812 24.792969 161.976562 24.648438 162.195312 24.574219 Z M 162.195312 25.738281 " fill-opacity="1" fill-rule="nonzero"/><path fill="#0a0080" d="M 147.523438 20.574219 C 148.324219 20.574219 148.976562 20.863281 149.339844 21.300781 C 149.632812 21.664062 149.777344 22.101562 149.847656 22.539062 L 153.40625 22.539062 C 153.1875 20.71875 152.609375 19.480469 151.519531 18.828125 C 150.429688 18.101562 149.121094 17.734375 147.453125 17.734375 C 145.492188 17.734375 143.96875 18.316406 142.878906 19.554688 C 141.789062 20.71875 141.207031 22.390625 141.207031 24.574219 C 141.207031 26.46875 141.714844 27.996094 142.734375 29.230469 C 143.75 30.394531 145.273438 31.050781 147.453125 31.050781 C 149.558594 31.050781 151.15625 30.324219 152.246094 28.867188 C 152.898438 27.996094 153.335938 27.050781 153.40625 26.03125 L 149.921875 26.03125 C 149.847656 26.683594 149.632812 27.195312 149.269531 27.632812 C 148.90625 28.066406 148.324219 28.285156 147.523438 28.285156 C 146.363281 28.285156 145.636719 27.777344 145.203125 26.683594 C 144.984375 26.101562 144.839844 25.375 144.839844 24.503906 C 144.839844 23.554688 144.984375 22.757812 145.203125 22.175781 C 145.566406 21.082031 146.363281 20.574219 147.523438 20.574219 " fill-opacity="1" fill-rule="nonzero"/><path fill="#0a0080" d="M 140.191406 17.808594 C 132.929688 17.808594 133.363281 24.210938 133.363281 24.210938 L 133.363281 30.761719 L 136.632812 30.761719 L 136.632812 24.648438 C 136.632812 23.628906 136.777344 22.902344 136.996094 22.390625 C 137.433594 21.519531 138.304688 21.082031 139.683594 21.082031 C 139.753906 21.082031 139.902344 21.082031 140.046875 21.082031 C 140.191406 21.082031 140.410156 21.082031 140.625 21.15625 L 140.625 17.808594 C 140.480469 17.808594 140.410156 17.808594 140.335938 17.808594 C 140.335938 17.808594 140.261719 17.808594 140.191406 17.808594 " fill-opacity="1" fill-rule="nonzero"/><path fill="#0a0080" d="M 128.136719 27.339844 C 127.992188 27.558594 127.847656 27.703125 127.703125 27.847656 C 127.265625 28.214844 126.613281 28.359375 125.886719 28.359375 C 125.160156 28.359375 124.652344 28.285156 124.144531 27.921875 C 123.34375 27.414062 122.835938 26.539062 122.835938 25.304688 L 131.914062 25.304688 C 131.914062 24.210938 131.914062 23.410156 131.769531 22.828125 C 131.621094 21.882812 131.257812 21.011719 130.75 20.210938 C 130.171875 19.335938 129.445312 18.753906 128.574219 18.316406 C 127.703125 17.953125 126.683594 17.734375 125.667969 17.734375 C 123.851562 17.734375 122.328125 18.316406 121.164062 19.480469 C 120.003906 20.644531 119.421875 22.320312 119.421875 24.503906 C 119.421875 26.832031 120.078125 28.503906 121.3125 29.523438 C 122.617188 30.542969 124.070312 31.050781 125.742188 31.050781 C 127.773438 31.050781 129.296875 30.46875 130.460938 29.230469 C 131.042969 28.578125 131.476562 27.921875 131.621094 27.339844 Z M 123.707031 21.226562 C 124.144531 20.71875 124.796875 20.5 125.667969 20.5 C 126.464844 20.5 127.121094 20.71875 127.628906 21.15625 C 128.136719 21.59375 128.425781 22.246094 128.5 23.121094 L 122.835938 23.121094 C 122.980469 22.320312 123.273438 21.664062 123.707031 21.226562 " fill-opacity="1" fill-rule="nonzero"/><path fill="#0a0080" d="M 118.117188 30.761719 L 115.140625 30.761719 L 115.140625 23.191406 C 115.140625 22.464844 114.921875 20.863281 112.960938 20.863281 C 111.652344 20.863281 110.710938 21.808594 110.710938 23.191406 L 110.710938 30.761719 L 107.730469 30.761719 L 107.730469 23.191406 C 107.730469 22.464844 107.515625 20.863281 105.554688 20.863281 C 104.175781 20.863281 103.300781 21.808594 103.300781 23.191406 L 103.300781 30.761719 L 100.179688 30.761719 L 100.179688 23.265625 C 100.179688 20.136719 102.285156 17.734375 105.480469 17.734375 C 107.078125 17.734375 108.386719 18.390625 109.257812 19.480469 C 110.128906 18.390625 111.433594 17.734375 112.960938 17.734375 C 116.226562 17.734375 118.1875 19.992188 118.1875 23.265625 L 118.1875 30.761719 Z M 118.117188 30.761719 " fill-opacity="1" fill-rule="nonzero"/><path fill="#0a0080" d="M 178.605469 13.808594 C 178.605469 13.808594 175.265625 13.441406 175.265625 16.136719 L 175.265625 19.699219 C 174.902344 19.117188 174.394531 18.683594 173.8125 18.316406 C 173.230469 17.953125 172.578125 17.808594 171.777344 17.808594 C 170.109375 17.808594 168.800781 18.390625 167.859375 19.628906 C 166.839844 20.863281 166.40625 22.609375 166.40625 24.792969 C 166.40625 26.683594 166.914062 28.140625 167.929688 29.378906 C 168.945312 30.542969 170.90625 31.050781 172.648438 31.050781 C 178.75 31.050781 178.675781 25.8125 178.675781 25.8125 Z M 174.683594 27.265625 C 174.175781 27.921875 173.519531 28.285156 172.578125 28.285156 C 171.632812 28.285156 170.980469 27.921875 170.472656 27.265625 C 170.035156 26.539062 169.816406 25.59375 169.816406 24.429688 C 169.816406 23.339844 170.035156 22.464844 170.472656 21.738281 C 170.90625 21.011719 171.632812 20.644531 172.578125 20.644531 C 173.230469 20.644531 173.738281 20.863281 174.246094 21.226562 C 175.046875 21.882812 175.410156 23.046875 175.410156 24.574219 C 175.410156 25.738281 175.191406 26.613281 174.683594 27.265625 " fill-opacity="1" fill-rule="nonzero"/><path fill="#0a0080" d="M 103.449219 51.714844 C 103.449219 52.152344 103.300781 52.585938 102.9375 52.878906 C 102.648438 53.167969 102.214844 53.316406 101.777344 53.316406 L 100.179688 53.316406 L 100.179688 41.890625 C 100.179688 39.636719 100.90625 38.253906 102.140625 37.308594 C 103.011719 36.652344 104.390625 36 107.152344 36.070312 C 108.53125 36.144531 109.910156 36.726562 110.78125 37.816406 C 111.871094 39.128906 112.308594 40.65625 112.308594 42.621094 C 112.308594 44.65625 111.796875 46.257812 110.855469 47.496094 C 109.910156 48.730469 108.675781 49.3125 107.152344 49.3125 C 106.351562 49.3125 105.625 49.167969 105.046875 48.875 C 104.390625 48.585938 103.882812 48.078125 103.519531 47.421875 L 103.519531 51.714844 Z M 108.964844 42.765625 C 108.964844 41.527344 108.75 40.582031 108.242188 39.925781 C 107.730469 39.273438 107.078125 38.910156 106.132812 38.910156 C 105.261719 38.910156 104.609375 39.273438 104.101562 39.925781 C 103.664062 40.507812 103.449219 41.527344 103.449219 42.765625 C 103.449219 44.003906 103.664062 44.875 104.171875 45.53125 C 104.683594 46.183594 105.335938 46.546875 106.28125 46.546875 C 107.152344 46.546875 107.804688 46.183594 108.242188 45.53125 C 108.675781 44.800781 108.964844 43.929688 108.964844 42.765625 " fill-opacity="1" fill-rule="nonzero"/><g clip-path="url(#b32c9d2856)"><path fill="#0a0080" d="M 134.089844 48.292969 L 134.089844 47.496094 C 133.511719 48.367188 132.785156 48.949219 131.769531 49.167969 C 130.824219 49.386719 129.808594 49.3125 128.863281 48.949219 C 127.917969 48.585938 127.121094 47.859375 126.394531 46.839844 C 125.742188 45.820312 125.378906 44.4375 125.378906 42.765625 C 125.378906 40.800781 125.8125 39.199219 126.757812 37.964844 C 127.628906 36.726562 129.082031 36.144531 131.113281 36.144531 C 133.074219 36.070312 134.238281 36.507812 135.324219 37.382812 C 136.558594 38.328125 137.285156 39.710938 137.285156 41.964844 L 137.285156 48.730469 C 137.285156 50.914062 135.761719 54.84375 131.113281 54.550781 C 128.210938 54.332031 126.613281 53.167969 125.667969 50.40625 L 129.152344 50.40625 C 129.371094 50.839844 129.808594 51.207031 130.316406 51.421875 C 130.824219 51.640625 131.332031 51.714844 131.914062 51.640625 C 132.421875 51.496094 132.929688 51.207031 133.363281 50.695312 C 133.800781 50.042969 134.019531 49.3125 134.089844 48.292969 M 128.71875 42.765625 C 128.71875 44.949219 129.371094 46.183594 130.605469 46.402344 C 131.839844 46.621094 132.785156 46.332031 133.4375 45.53125 C 133.726562 45.167969 133.945312 44.65625 134.089844 43.855469 C 134.238281 43.128906 134.238281 42.402344 134.089844 41.601562 C 133.945312 40.875 133.726562 40.21875 133.292969 39.636719 C 132.855469 39.054688 132.277344 38.761719 131.476562 38.761719 C 130.386719 38.761719 129.660156 39.199219 129.296875 39.925781 C 128.863281 40.875 128.71875 41.746094 128.71875 42.765625 " fill-opacity="1" fill-rule="nonzero"/></g><path fill="#0a0080" d="M 122.617188 36.945312 C 121.527344 36.433594 120.292969 36.144531 118.914062 36.144531 C 116.808594 36.144531 115.285156 36.726562 114.414062 37.816406 C 113.832031 38.546875 113.542969 39.417969 113.46875 40.507812 L 116.664062 40.507812 C 116.734375 40 116.882812 39.636719 117.097656 39.34375 C 117.460938 38.980469 117.972656 38.761719 118.769531 38.761719 C 119.496094 38.761719 120.003906 38.835938 120.367188 39.054688 C 120.730469 39.273438 120.875 39.636719 120.875 40.144531 C 120.875 40.582031 120.65625 40.875 120.148438 41.089844 C 119.859375 41.238281 119.421875 41.308594 118.84375 41.382812 L 117.753906 41.527344 C 116.445312 41.671875 115.5 41.964844 114.847656 42.328125 C 113.613281 43.054688 113.03125 44.148438 113.03125 45.675781 C 113.03125 46.839844 113.394531 47.785156 114.121094 48.441406 C 114.847656 49.09375 115.792969 49.386719 116.953125 49.386719 C 124.144531 49.675781 123.996094 45.601562 124.070312 44.730469 L 124.070312 40 C 124.214844 38.546875 123.707031 37.453125 122.617188 36.945312 M 120.949219 44.074219 C 120.949219 45.167969 120.585938 45.964844 120.003906 46.332031 C 119.421875 46.765625 118.769531 46.984375 118.042969 46.984375 C 117.609375 46.984375 117.171875 46.839844 116.882812 46.621094 C 116.589844 46.402344 116.375 45.964844 116.375 45.382812 C 116.375 44.730469 116.664062 44.292969 117.171875 44.003906 C 117.460938 43.855469 117.972656 43.636719 118.695312 43.566406 L 119.421875 43.421875 C 119.785156 43.347656 120.078125 43.273438 120.292969 43.203125 C 120.511719 43.128906 120.730469 42.984375 120.949219 42.910156 Z M 120.949219 44.074219 " fill-opacity="1" fill-rule="nonzero"/><path fill="#0a0080" d="M 149.777344 37.964844 C 148.6875 36.652344 147.089844 36 144.984375 36 C 142.804688 36 141.207031 36.652344 140.191406 37.964844 C 139.101562 39.273438 138.59375 40.875 138.59375 42.691406 C 138.59375 44.511719 139.101562 46.113281 140.191406 47.421875 C 141.28125 48.730469 142.878906 49.386719 144.984375 49.386719 C 147.160156 49.386719 148.757812 48.730469 149.777344 47.421875 C 150.867188 46.113281 151.375 44.511719 151.375 42.691406 C 151.375 40.875 150.867188 39.34375 149.777344 37.964844 M 147.160156 45.601562 C 146.652344 46.257812 145.925781 46.621094 144.984375 46.621094 C 144.039062 46.621094 143.3125 46.257812 142.804688 45.601562 C 142.296875 44.949219 142.007812 43.929688 142.007812 42.691406 C 142.007812 41.457031 142.296875 40.4375 142.804688 39.78125 C 143.3125 39.128906 144.039062 38.761719 144.984375 38.761719 C 145.925781 38.761719 146.652344 39.128906 147.160156 39.78125 C 147.671875 40.4375 147.960938 41.457031 147.960938 42.691406 C 147.960938 43.929688 147.671875 44.875 147.160156 45.601562 " fill-opacity="1" fill-rule="nonzero"/></svg>