<svg xmlns="http://www.w3.org/2000/svg" xmlns:xlink="http://www.w3.org/1999/xlink" width="300" zoomAndPan="magnify" viewBox="0 0 224.87999 67.499998" height="90" preserveAspectRatio="xMidYMid meet" version="1.0"><defs><clipPath id="7ed1a05353"><path d="M 186 16 L 193.316406 16 L 193.316406 24 L 186 24 Z M 186 16 " clip-rule="nonzero"/></clipPath><clipPath id="767c740d8f"><path d="M 186 27 L 193.316406 27 L 193.316406 49 L 186 49 Z M 186 27 " clip-rule="nonzero"/></clipPath><clipPath id="19fe457c5d"><path d="M 31.765625 21 L 63 21 L 63 52 L 31.765625 52 Z M 31.765625 21 " clip-rule="nonzero"/></clipPath></defs><path fill="#503296" d="M 76.320312 19.753906 L 83.765625 19.753906 L 89.761719 31.421875 L 95.71875 19.753906 L 103.167969 19.753906 L 93.066406 38.335938 L 93.066406 48.214844 L 86.417969 48.214844 L 86.417969 38.335938 Z M 76.320312 19.753906 " fill-opacity="1" fill-rule="nonzero"/><path fill="#503296" d="M 107.417969 48.617188 C 106.109375 48.617188 104.910156 48.398438 103.894531 47.957031 C 102.878906 47.519531 102.078125 46.824219 101.460938 45.910156 C 100.878906 44.996094 100.589844 43.859375 100.589844 42.472656 C 100.589844 41.300781 100.769531 40.3125 101.207031 39.542969 C 101.605469 38.738281 102.1875 38.082031 102.878906 37.605469 C 103.566406 37.09375 104.402344 36.726562 105.347656 36.472656 C 106.292969 36.214844 107.273438 36.03125 108.328125 35.960938 C 109.488281 35.847656 110.46875 35.738281 111.160156 35.628906 C 111.886719 35.519531 112.394531 35.335938 112.722656 35.082031 C 113.050781 34.863281 113.195312 34.53125 113.195312 34.09375 L 113.195312 34.019531 C 113.195312 33.324219 112.941406 32.777344 112.46875 32.410156 C 111.996094 32.042969 111.34375 31.824219 110.542969 31.824219 C 109.671875 31.824219 108.980469 32.007812 108.4375 32.410156 C 107.890625 32.777344 107.5625 33.324219 107.417969 33.984375 L 101.316406 33.765625 C 101.496094 32.484375 101.96875 31.351562 102.695312 30.363281 C 103.457031 29.375 104.476562 28.570312 105.820312 27.984375 C 107.128906 27.398438 108.726562 27.105469 110.578125 27.105469 C 111.886719 27.105469 113.121094 27.253906 114.25 27.582031 C 115.375 27.910156 116.320312 28.351562 117.15625 28.933594 C 117.992188 29.519531 118.609375 30.253906 119.082031 31.128906 C 119.554688 32.007812 119.769531 32.960938 119.769531 34.09375 L 119.769531 48.324219 L 113.558594 48.324219 L 113.558594 45.398438 L 113.449219 45.398438 C 113.085938 46.09375 112.613281 46.714844 112.03125 47.191406 C 111.449219 47.664062 110.796875 48.03125 110.035156 48.289062 C 109.234375 48.46875 108.363281 48.617188 107.417969 48.617188 Z M 109.453125 44.226562 C 110.179688 44.226562 110.796875 44.082031 111.378906 43.789062 C 111.960938 43.496094 112.394531 43.09375 112.757812 42.582031 C 113.085938 42.070312 113.269531 41.484375 113.269531 40.789062 L 113.269531 38.8125 C 113.085938 38.921875 112.867188 38.996094 112.578125 39.070312 C 112.324219 39.140625 112.03125 39.214844 111.707031 39.289062 C 111.378906 39.359375 111.050781 39.433594 110.722656 39.472656 C 110.398438 39.507812 110.070312 39.582031 109.742188 39.617188 C 109.125 39.726562 108.582031 39.875 108.144531 40.09375 C 107.707031 40.3125 107.382812 40.570312 107.128906 40.898438 C 106.910156 41.226562 106.800781 41.628906 106.800781 42.070312 C 106.800781 42.761719 107.054688 43.277344 107.527344 43.640625 C 108.074219 44.042969 108.691406 44.226562 109.453125 44.226562 Z M 109.453125 44.226562 " fill-opacity="1" fill-rule="nonzero"/><path fill="#503296" d="M 124.929688 48.25 L 124.929688 27.070312 L 131.214844 27.070312 L 131.214844 31.167969 C 131.652344 29.886719 132.59375 28.898438 133.648438 28.167969 C 134.667969 27.433594 135.902344 27.070312 137.320312 27.070312 C 138.773438 27.070312 140.007812 27.433594 141.023438 28.203125 C 142.042969 28.933594 142.695312 29.960938 142.988281 31.203125 C 143.386719 29.960938 144.332031 28.972656 145.457031 28.203125 C 146.582031 27.472656 147.890625 27.070312 149.453125 27.070312 C 151.414062 27.070312 153.015625 27.691406 154.25 28.972656 C 155.484375 30.253906 156.101562 31.972656 156.101562 34.167969 L 156.101562 48.25 L 149.488281 48.25 L 149.488281 35.703125 C 149.488281 34.640625 149.234375 33.875 148.691406 33.324219 C 148.144531 32.777344 147.457031 32.484375 146.621094 32.484375 C 145.710938 32.484375 144.984375 32.777344 144.476562 33.363281 C 143.96875 33.945312 143.714844 34.75 143.714844 35.738281 L 143.714844 48.214844 L 137.355469 48.214844 L 137.355469 35.59375 C 137.355469 34.605469 137.101562 33.835938 136.59375 33.289062 C 136.082031 32.738281 135.394531 32.445312 134.519531 32.445312 C 133.941406 32.445312 133.429688 32.59375 132.996094 32.847656 C 132.558594 33.140625 132.195312 33.507812 131.976562 34.019531 C 131.722656 34.53125 131.613281 35.117188 131.613281 35.8125 L 131.613281 48.179688 Z M 124.929688 48.25 " fill-opacity="1" fill-rule="nonzero"/><path fill="#503296" d="M 160.933594 56.078125 L 160.933594 27.070312 L 167.472656 27.070312 L 167.472656 30.910156 C 167.765625 30.289062 168.34375 29.667969 168.816406 29.082031 C 169.328125 28.496094 169.945312 28.019531 170.742188 27.617188 C 171.503906 27.253906 172.449219 27.070312 173.542969 27.070312 C 174.992188 27.070312 176.339844 27.433594 177.574219 28.203125 C 178.84375 28.972656 179.824219 30.140625 180.625 31.714844 C 181.386719 33.289062 181.789062 35.335938 181.789062 37.789062 C 181.789062 40.167969 181.425781 42.140625 180.660156 43.75 C 179.9375 45.359375 178.917969 46.53125 177.644531 47.335938 C 176.375 48.140625 174.992188 48.542969 173.46875 48.542969 C 172.414062 48.542969 171.503906 48.359375 170.742188 48.03125 C 169.980469 47.703125 169.328125 47.226562 168.816406 46.679688 C 168.308594 46.128906 167.910156 45.507812 167.617188 44.847656 L 167.472656 44.847656 L 167.472656 56.078125 Z M 167.402344 37.789062 C 167.402344 38.921875 167.546875 39.910156 167.835938 40.714844 C 168.128906 41.554688 168.5625 42.214844 169.144531 42.652344 C 169.726562 43.128906 170.417969 43.347656 171.214844 43.347656 C 172.015625 43.347656 172.703125 43.128906 173.285156 42.652344 C 173.867188 42.179688 174.265625 41.554688 174.558594 40.714844 C 174.847656 39.875 174.992188 38.886719 174.992188 37.789062 C 174.992188 36.652344 174.847656 35.703125 174.558594 34.863281 C 174.265625 34.019531 173.832031 33.398438 173.285156 32.960938 C 172.742188 32.519531 172.015625 32.265625 171.214844 32.265625 C 170.417969 32.265625 169.726562 32.484375 169.144531 32.921875 C 168.5625 33.363281 168.128906 34.019531 167.835938 34.824219 C 167.582031 35.667969 167.402344 36.652344 167.402344 37.789062 Z M 167.402344 37.789062 " fill-opacity="1" fill-rule="nonzero"/><g clip-path="url(#7ed1a05353)"><path fill="#503296" d="M 189.925781 23.226562 C 188.980469 23.226562 188.183594 22.898438 187.527344 22.277344 C 186.875 21.65625 186.546875 20.886719 186.546875 20.007812 C 186.546875 19.128906 186.875 18.398438 187.527344 17.777344 C 188.183594 17.15625 188.980469 16.863281 189.925781 16.863281 C 190.871094 16.863281 191.671875 17.191406 192.324219 17.777344 C 192.976562 18.398438 193.304688 19.128906 193.304688 20.007812 C 193.304688 20.886719 192.976562 21.65625 192.324219 22.277344 C 191.632812 22.898438 190.835938 23.226562 189.925781 23.226562 Z M 189.925781 23.226562 " fill-opacity="1" fill-rule="nonzero"/></g><g clip-path="url(#767c740d8f)"><path fill="#503296" d="M 193.195312 27.140625 L 186.582031 27.140625 L 186.582031 48.25 L 193.195312 48.25 Z M 193.195312 27.140625 " fill-opacity="1" fill-rule="nonzero"/></g><path fill="#fa3296" d="M 57.355469 48.324219 C 59.0625 48.324219 60.625 47.847656 62.003906 47.007812 C 62.730469 45.726562 63.128906 44.226562 63.128906 42.617188 C 63.128906 37.714844 59.171875 33.726562 54.300781 33.726562 L 49.433594 33.726562 L 49.433594 28.972656 C 49.433594 24.070312 45.472656 20.082031 40.605469 20.082031 C 38.96875 20.082031 37.410156 20.519531 36.101562 21.324219 C 35.375 22.644531 34.9375 24.144531 34.9375 25.753906 L 34.9375 38.996094 C 34.9375 43.898438 39.261719 48.324219 44.128906 48.324219 Z M 57.355469 48.324219 " fill-opacity="1" fill-rule="nonzero"/><g clip-path="url(#19fe457c5d)"><path fill="#503296" d="M 57.355469 48.324219 L 44.128906 48.324219 C 39.261719 48.324219 34.9375 43.898438 34.9375 38.996094 L 34.9375 25.753906 C 34.9375 24.144531 35.375 22.644531 36.101562 21.324219 C 33.519531 22.863281 31.777344 25.714844 31.777344 28.972656 L 31.777344 41.554688 C 31.777344 46.457031 36.683594 51.542969 41.550781 51.542969 L 54.300781 51.542969 C 57.609375 51.542969 60.480469 49.714844 62.003906 47.007812 C 60.625 47.847656 59.027344 48.324219 57.355469 48.324219 Z M 57.355469 48.324219 " fill-opacity="1" fill-rule="nonzero"/></g><path fill="#c83296" d="M 60.625 45.105469 L 46.5625 45.105469 C 41.695312 45.105469 38.097656 41.921875 38.097656 36.214844 L 38.097656 22.53125 C 38.097656 20.886719 38.535156 19.351562 39.332031 18.035156 C 36.683594 19.570312 34.902344 22.460938 34.902344 25.753906 L 34.902344 38.996094 C 34.902344 43.898438 39.226562 48.324219 44.09375 48.324219 L 57.316406 48.324219 C 60.585938 48.324219 63.457031 46.566406 65.019531 43.933594 C 63.75 44.664062 62.257812 45.105469 60.625 45.105469 Z M 60.625 45.105469 " fill-opacity="1" fill-rule="nonzero"/><path fill="#fa78b4" d="M 66.292969 39.03125 C 66.074219 34.277344 62.222656 30.507812 57.464844 30.507812 L 52.59375 30.507812 L 52.59375 25.863281 C 52.59375 20.777344 48.417969 16.644531 43.367188 16.863281 C 40.242188 17.007812 37.554688 18.765625 36.101562 21.324219 C 37.410156 20.519531 38.972656 20.082031 40.605469 20.082031 C 45.472656 20.082031 49.433594 24.070312 49.433594 28.972656 L 49.433594 33.726562 L 54.300781 33.726562 C 59.171875 33.726562 63.132812 37.714844 63.132812 42.617188 C 63.132812 44.191406 62.730469 45.691406 62.003906 47.007812 C 64.65625 45.398438 66.402344 42.398438 66.292969 39.03125 Z M 66.292969 39.03125 " fill-opacity="1" fill-rule="nonzero"/><path fill="#faa0c8" d="M 60.625 27.324219 L 55.753906 27.324219 L 55.753906 22.570312 C 55.753906 17.667969 51.796875 13.679688 46.925781 13.679688 C 43.695312 13.679688 40.859375 15.4375 39.296875 18.070312 C 40.496094 17.375 41.878906 16.9375 43.332031 16.863281 C 48.378906 16.644531 52.558594 20.777344 52.558594 25.863281 L 52.558594 30.507812 L 57.425781 30.507812 C 62.1875 30.507812 66.039062 34.277344 66.253906 39.03125 C 66.328125 40.824219 65.855469 42.507812 65.019531 43.933594 C 67.671875 42.398438 69.453125 39.507812 69.453125 36.214844 C 69.453125 31.277344 65.527344 27.324219 60.625 27.324219 Z M 60.625 27.324219 " fill-opacity="1" fill-rule="nonzero"/><path fill="#faa0c8" d="M 38.390625 20.339844 C 38.609375 19.496094 38.933594 18.726562 39.335938 18.035156 C 37.988281 18.800781 36.863281 19.9375 36.101562 21.324219 C 36.789062 20.886719 37.554688 20.558594 38.390625 20.339844 Z M 38.390625 20.339844 " fill-opacity="1" fill-rule="nonzero"/><path fill="#faa0c8" d="M 62.839844 44.8125 C 62.660156 45.582031 62.332031 46.3125 61.96875 47.007812 C 63.238281 46.238281 64.292969 45.179688 65.019531 43.933594 C 64.367188 44.335938 63.640625 44.628906 62.839844 44.8125 Z M 62.839844 44.8125 " fill-opacity="1" fill-rule="nonzero"/></svg>