<svg xmlns="http://www.w3.org/2000/svg" xmlns:xlink="http://www.w3.org/1999/xlink" width="300" zoomAndPan="magnify" viewBox="0 0 224.87999 67.499998" height="90" preserveAspectRatio="xMidYMid meet" version="1.0"><defs><clipPath id="fb7704d603"><path d="M 29.339844 27 L 44 27 L 44 50 L 29.339844 50 Z M 29.339844 27 " clip-rule="nonzero"/></clipPath><clipPath id="8cd036da28"><path d="M 39 12.867188 L 55 12.867188 L 55 48 L 39 48 Z M 39 12.867188 " clip-rule="nonzero"/></clipPath><clipPath id="78bb6f1824"><path d="M 34 23 L 66 23 L 66 53.8125 L 34 53.8125 Z M 34 23 " clip-rule="nonzero"/></clipPath><clipPath id="421a22033a"><path d="M 176 23 L 199.082031 23 L 199.082031 53 L 176 53 Z M 176 23 " clip-rule="nonzero"/></clipPath></defs><g clip-path="url(#fb7704d603)"><path fill="#25f4ee" d="M 43.515625 29 L 43.515625 27.410156 C 42.953125 27.328125 42.394531 27.292969 41.828125 27.292969 C 34.941406 27.28125 29.339844 32.835938 29.339844 39.671875 C 29.339844 43.714844 31.332031 47.496094 34.675781 49.816406 C 32.523438 47.523438 31.320312 44.515625 31.320312 41.378906 C 31.320312 34.644531 36.765625 29.15625 43.515625 29 Z M 43.515625 29 " fill-opacity="1" fill-rule="nonzero"/></g><g clip-path="url(#8cd036da28)"><path fill="#25f4ee" d="M 43.816406 47.035156 C 46.878906 47.023438 49.390625 44.625 49.507812 41.589844 L 49.519531 14.621094 L 54.488281 14.621094 C 54.378906 14.058594 54.332031 13.484375 54.332031 12.910156 L 47.546875 12.910156 L 47.527344 39.878906 C 47.417969 43 44.777344 45.433594 41.632812 45.324219 C 40.78125 45.296875 39.9375 45.070312 39.1875 44.679688 C 40.25 46.152344 41.972656 47.035156 43.816406 47.035156 Z M 43.816406 47.035156 " fill-opacity="1" fill-rule="nonzero"/></g><path fill="#25f4ee" d="M 63.773438 23.773438 L 63.773438 22.273438 C 61.949219 22.273438 60.160156 21.746094 58.632812 20.757812 C 59.96875 22.292969 61.773438 23.347656 63.773438 23.773438 Z M 63.773438 23.773438 " fill-opacity="1" fill-rule="nonzero"/><path fill="#fe2c55" d="M 58.632812 20.757812 C 57.136719 19.054688 56.3125 16.875 56.3125 14.621094 L 54.496094 14.621094 C 54.964844 17.136719 56.457031 19.355469 58.632812 20.757812 Z M 58.632812 20.757812 " fill-opacity="1" fill-rule="nonzero"/><path fill="#fe2c55" d="M 41.835938 34.007812 C 38.683594 34.007812 36.132812 36.535156 36.132812 39.664062 C 36.132812 41.769531 37.308594 43.699219 39.195312 44.671875 C 37.34375 42.152344 37.902344 38.636719 40.433594 36.800781 C 41.890625 35.746094 43.78125 35.4375 45.503906 35.980469 L 45.503906 29.109375 C 44.945312 29.027344 44.386719 28.992188 43.816406 28.992188 C 43.714844 28.992188 43.625 29 43.523438 29 L 43.523438 34.273438 C 42.972656 34.097656 42.40625 34.007812 41.835938 34.007812 Z M 41.835938 34.007812 " fill-opacity="1" fill-rule="nonzero"/><g clip-path="url(#78bb6f1824)"><path fill="#fe2c55" d="M 63.773438 23.773438 L 63.773438 29 C 60.382812 29 57.082031 27.953125 54.332031 25.992188 L 54.332031 39.671875 C 54.332031 46.507812 48.730469 52.058594 41.835938 52.058594 C 39.269531 52.058594 36.777344 51.277344 34.675781 49.816406 C 37.03125 52.332031 40.34375 53.769531 43.816406 53.769531 C 50.699219 53.769531 56.3125 48.214844 56.3125 41.378906 L 56.3125 27.699219 C 59.0625 29.664062 62.363281 30.71875 65.753906 30.710938 L 65.753906 23.984375 C 65.085938 23.984375 64.425781 23.910156 63.773438 23.773438 Z M 63.773438 23.773438 " fill-opacity="1" fill-rule="nonzero"/></g><path fill="#000000" d="M 54.332031 39.671875 L 54.332031 25.992188 C 57.082031 27.953125 60.382812 29.007812 63.773438 29 L 63.773438 23.773438 C 61.773438 23.347656 59.96875 22.292969 58.632812 20.757812 C 56.457031 19.355469 54.964844 17.136719 54.488281 14.621094 L 49.519531 14.621094 L 49.507812 41.589844 C 49.398438 44.707031 46.757812 47.144531 43.613281 47.035156 C 41.855469 46.96875 40.214844 46.105469 39.1875 44.679688 C 36.398438 43.234375 35.316406 39.816406 36.777344 37.042969 C 37.757812 35.179688 39.710938 34.007812 41.828125 34.007812 C 42.394531 34.007812 42.964844 34.097656 43.515625 34.273438 L 43.515625 29 C 36.765625 29.164062 31.320312 34.652344 31.320312 41.390625 C 31.320312 44.523438 32.523438 47.535156 34.675781 49.824219 C 36.777344 51.289062 39.269531 52.070312 41.835938 52.070312 C 48.722656 52.058594 54.332031 46.496094 54.332031 39.671875 Z M 54.332031 39.671875 " fill-opacity="1" fill-rule="nonzero"/><path fill="#000000" d="M 72.464844 23.792969 L 93.675781 23.792969 L 91.734375 29.808594 L 86.234375 29.808594 L 86.234375 52.050781 L 79.375 52.050781 L 79.375 29.808594 L 72.484375 29.820312 Z M 72.464844 23.792969 " fill-opacity="1" fill-rule="nonzero"/><path fill="#000000" d="M 128.414062 23.792969 L 150.113281 23.792969 L 148.167969 29.808594 L 142.191406 29.808594 L 142.191406 52.050781 L 135.316406 52.050781 L 135.316406 29.808594 L 128.421875 29.820312 Z M 128.414062 23.792969 " fill-opacity="1" fill-rule="nonzero"/><path fill="#000000" d="M 94.96875 32.78125 L 101.761719 32.78125 L 101.761719 52.050781 L 95.007812 52.050781 Z M 94.96875 32.78125 " fill-opacity="1" fill-rule="nonzero"/><path fill="#000000" d="M 104.46875 23.71875 L 111.261719 23.71875 L 111.261719 36.882812 L 117.988281 30.335938 L 126.09375 30.335938 L 117.578125 38.515625 L 127.109375 52.050781 L 119.628906 52.050781 L 113.269531 42.671875 L 111.25 44.605469 L 111.25 52.050781 L 104.457031 52.050781 Z M 104.46875 23.71875 " fill-opacity="1" fill-rule="nonzero"/><g clip-path="url(#421a22033a)"><path fill="#000000" d="M 176.429688 23.71875 L 183.222656 23.71875 L 183.222656 36.882812 L 189.953125 30.335938 L 198.058594 30.335938 L 189.539062 38.515625 L 199.074219 52.050781 L 191.59375 52.050781 L 185.230469 42.671875 L 183.214844 44.605469 L 183.214844 52.050781 L 176.421875 52.050781 Z M 176.429688 23.71875 " fill-opacity="1" fill-rule="nonzero"/></g><path fill="#000000" d="M 99.675781 24.058594 C 100.097656 24.230469 100.464844 24.476562 100.785156 24.792969 C 101.105469 25.109375 101.355469 25.476562 101.527344 25.894531 C 101.703125 26.308594 101.789062 26.742188 101.789062 27.191406 C 101.789062 27.640625 101.703125 28.074219 101.527344 28.488281 C 101.355469 28.902344 101.105469 29.269531 100.785156 29.589844 C 100.464844 29.90625 100.097656 30.152344 99.675781 30.324219 C 99.257812 30.496094 98.820312 30.582031 98.367188 30.582031 C 97.914062 30.582031 97.480469 30.496094 97.058594 30.324219 C 96.640625 30.152344 96.269531 29.90625 95.949219 29.589844 C 95.628906 29.269531 95.382812 28.902344 95.210938 28.488281 C 95.035156 28.074219 94.949219 27.640625 94.949219 27.191406 C 94.949219 26.742188 95.035156 26.308594 95.210938 25.894531 C 95.382812 25.476562 95.628906 25.109375 95.949219 24.792969 C 96.269531 24.476562 96.640625 24.230469 97.058594 24.058594 C 97.480469 23.886719 97.914062 23.800781 98.367188 23.800781 C 98.820312 23.800781 99.257812 23.886719 99.675781 24.058594 Z M 99.675781 24.058594 " fill-opacity="1" fill-rule="nonzero"/><path fill="#25f4ee" d="M 149.242188 40.515625 C 149.242188 34.5 153.917969 29.492188 159.964844 29.019531 C 159.664062 29 159.25 28.980469 158.949219 28.980469 C 152.523438 28.980469 147.316406 34.152344 147.316406 40.515625 C 147.316406 46.886719 152.523438 52.042969 158.949219 52.050781 C 159.25 52.050781 159.664062 52.03125 159.964844 52.015625 C 153.917969 51.542969 149.25 46.535156 149.242188 40.515625 Z M 149.242188 40.515625 " fill-opacity="1" fill-rule="nonzero"/><path fill="#fe2c55" d="M 162.605469 28.980469 C 162.296875 28.980469 161.882812 29 161.582031 29.019531 C 167.980469 29.519531 172.765625 35.070312 172.261719 41.417969 C 171.8125 47.070312 167.28125 51.558594 161.582031 52.003906 C 161.882812 52.03125 162.296875 52.042969 162.605469 52.042969 C 169.035156 52.042969 174.242188 46.871094 174.242188 40.507812 C 174.242188 34.144531 169.035156 28.980469 162.605469 28.980469 Z M 162.605469 28.980469 " fill-opacity="1" fill-rule="nonzero"/><path fill="#000000" d="M 160.773438 46.125 C 157.648438 46.125 155.117188 43.617188 155.117188 40.515625 C 155.117188 37.417969 157.648438 34.910156 160.773438 34.910156 C 163.898438 34.910156 166.429688 37.417969 166.429688 40.515625 C 166.429688 43.617188 163.898438 46.125 160.773438 46.125 Z M 160.773438 28.980469 C 154.347656 28.980469 149.140625 34.144531 149.140625 40.515625 C 149.140625 46.886719 154.347656 52.050781 160.773438 52.050781 C 167.199219 52.050781 172.40625 46.886719 172.40625 40.515625 C 172.40625 34.144531 167.191406 28.980469 160.773438 28.980469 Z M 160.773438 28.980469 " fill-opacity="1" fill-rule="nonzero"/></svg>