<svg xmlns="http://www.w3.org/2000/svg" xmlns:xlink="http://www.w3.org/1999/xlink" width="96" zoomAndPan="magnify" viewBox="0 0 72 72" height="96" preserveAspectRatio="xMidYMid meet" version="1.0"><defs><clipPath id="043fa10575"><path d="M 5.425781 16 L 57 16 L 57 63.683594 L 5.425781 63.683594 Z M 5.425781 16 " clip-rule="nonzero"/></clipPath><clipPath id="1a908300b1"><path d="M 44 19 L 67.675781 19 L 67.675781 43 L 44 43 Z M 44 19 " clip-rule="nonzero"/></clipPath><clipPath id="008d249334"><path d="M 5.425781 31 L 18 31 L 18 39 L 5.425781 39 Z M 5.425781 31 " clip-rule="nonzero"/></clipPath><clipPath id="0f5cc11ccb"><path d="M 5.425781 40 L 13 40 L 13 46 L 5.425781 46 Z M 5.425781 40 " clip-rule="nonzero"/></clipPath><clipPath id="6c6b084645"><path d="M 58 35 L 67.675781 35 L 67.675781 38 L 58 38 Z M 58 35 " clip-rule="nonzero"/></clipPath></defs><path fill="#6f9134" d="M 58.785156 10.019531 C 62.910156 10.667969 67.351562 24.460938 62.164062 28.625 C 57.5625 32.316406 46.515625 27.535156 46.078125 23.273438 C 45.945312 21.984375 47.667969 20.140625 51.113281 16.5 C 55.347656 12.046875 57.492188 9.824219 58.785156 10.019531 Z M 58.785156 10.019531 " fill-opacity="1" fill-rule="nonzero"/><g clip-path="url(#043fa10575)"><path fill="#82ae42" d="M 51.511719 41.308594 C 49.398438 42.296875 47.945312 41.710938 44.019531 40.707031 L 44.015625 40.707031 C 42.839844 40.402344 41.441406 40.0625 39.734375 39.71875 C 27.332031 37.191406 21.859375 39.015625 20.203125 39.613281 C 18.195312 40.339844 15.113281 42.035156 14.285156 43.890625 C 12.851562 47.085938 17.382812 52.347656 21.433594 55.007812 C 23.199219 56.160156 28.753906 59.800781 33.191406 57.378906 C 36.101562 55.789062 38.066406 51.839844 37.027344 49.320312 C 36.625 48.359375 35.53125 46.984375 34.199219 47.070312 C 33.386719 47.125 32.542969 47.71875 32.253906 48.511719 C 31.734375 49.921875 33.269531 51.207031 32.871094 51.652344 C 32.390625 52.1875 29.308594 51.292969 28.339844 48.902344 C 27.796875 47.570312 28 45.949219 28.863281 44.785156 C 30.089844 43.132812 32.183594 43.050781 33.179688 42.988281 C 36.273438 42.789062 39.785156 44.472656 41.492188 47.3125 C 41.523438 47.371094 41.5625 47.425781 41.59375 47.480469 C 41.957031 48.128906 42.21875 48.804688 42.382812 49.492188 C 42.507812 50.011719 42.578125 50.539062 42.605469 51.066406 C 42.640625 51.863281 42.566406 52.664062 42.402344 53.457031 L 42.402344 53.464844 C 42.292969 54 42.140625 54.539062 41.953125 55.070312 L 41.953125 55.074219 C 41.699219 55.773438 41.386719 56.453125 41.019531 57.101562 C 40.113281 58.703125 38.910156 60.089844 37.605469 61.058594 C 35.332031 62.746094 32.8125 63.113281 31.78125 63.253906 C 30.570312 63.414062 28.148438 63.582031 24.488281 62.34375 C 21.355469 61.289062 14.121094 58.839844 9.488281 51.792969 C 9 51.050781 8.539062 50.257812 8.117188 49.40625 C 8.023438 49.214844 7.910156 48.984375 7.796875 48.730469 C 7.421875 47.925781 6.964844 46.808594 6.546875 45.472656 C 6.148438 44.191406 5.796875 42.699219 5.597656 41.066406 C 5.480469 40.105469 5.417969 39.097656 5.4375 38.050781 C 5.476562 35.964844 5.828125 33.738281 6.695312 31.484375 C 6.699219 31.46875 6.707031 31.453125 6.71875 31.433594 C 7.089844 30.460938 7.539062 29.535156 8.058594 28.675781 C 9.390625 26.4375 11.148438 24.570312 13.167969 23.035156 C 14.074219 22.34375 15.035156 21.714844 16.035156 21.15625 C 18.171875 19.953125 20.488281 19.03125 22.839844 18.367188 C 23.886719 18.070312 24.945312 17.824219 25.992188 17.625 L 26.019531 17.621094 C 28.324219 17.179688 30.601562 16.972656 32.722656 16.960938 L 32.753906 16.957031 C 33.9375 16.953125 35.074219 17.003906 36.132812 17.113281 C 36.253906 17.125 36.378906 17.140625 36.5 17.15625 L 36.503906 17.15625 C 39.019531 17.441406 41.257812 18.042969 43.167969 18.753906 C 45.414062 19.585938 47.207031 20.566406 48.464844 21.351562 L 48.472656 21.351562 C 49.148438 21.769531 49.664062 22.125 50.023438 22.375 C 50.265625 22.542969 50.507812 22.710938 50.746094 22.878906 C 51.585938 23.472656 52.398438 24.0625 53.148438 24.691406 C 53.496094 24.984375 53.824219 25.28125 54.136719 25.589844 C 55.449219 26.882812 56.4375 28.378906 56.816406 30.328125 C 56.875 30.644531 56.921875 30.960938 56.941406 31.28125 C 56.941406 31.289062 56.941406 31.289062 56.941406 31.289062 C 57.285156 35.351562 54.910156 39.71875 51.511719 41.308594 Z M 51.511719 41.308594 " fill-opacity="1" fill-rule="nonzero"/></g><path fill="#97be48" d="M 36.367188 33.113281 C 36.648438 33.550781 36.027344 34.058594 35.4375 35.953125 C 35.101562 37.035156 34.722656 38.25 35.152344 38.582031 C 35.738281 39.039062 37.042969 37.300781 38.59375 37.65625 C 39.867188 37.949219 40.863281 39.550781 40.515625 40.234375 C 40.332031 40.601562 39.839844 40.535156 36.804688 40.613281 C 34.367188 40.675781 33.953125 40.738281 33.410156 40.351562 C 32.511719 39.714844 32.3125 38.59375 32.164062 37.714844 C 32.011719 36.839844 31.675781 34.875 32.925781 33.671875 C 34.023438 32.632812 35.980469 32.5 36.367188 33.113281 Z M 36.367188 33.113281 " fill-opacity="1" fill-rule="nonzero"/><g clip-path="url(#1a908300b1)"><path fill="#97be48" d="M 67.128906 35.660156 C 67.089844 35.796875 67.039062 35.925781 66.988281 36.058594 C 66.882812 36.324219 66.761719 36.589844 66.625 36.839844 C 66.59375 36.914062 66.558594 36.984375 66.515625 37.054688 C 66.242188 37.542969 65.921875 37.988281 65.558594 38.382812 C 64.582031 39.453125 63.375 40.085938 58.96875 40.96875 C 48.148438 43.140625 45.960938 42.914062 44.75 41.308594 C 44.347656 40.769531 44.273438 39.859375 44.144531 38.058594 C 43.929688 35.070312 44.191406 32.386719 44.894531 28.714844 C 45.804688 23.960938 46.28125 21.558594 47.476562 20.757812 C 49.855469 19.167969 53.414062 20.445312 54.394531 20.800781 C 55.617188 21.238281 56.757812 22.050781 59.042969 23.671875 C 61.207031 25.210938 62.648438 26.449219 63.347656 27.085938 C 65.667969 29.207031 66.824219 30.265625 67.234375 31.558594 C 67.65625 32.882812 67.566406 34.335938 67.128906 35.660156 Z M 67.128906 35.660156 " fill-opacity="1" fill-rule="nonzero"/></g><path fill="#ffffff" d="M 61.699219 27.347656 C 61.699219 27.765625 61.660156 28.179688 61.578125 28.589844 C 61.496094 29 61.375 29.398438 61.210938 29.785156 C 61.050781 30.171875 60.855469 30.539062 60.621094 30.886719 C 60.386719 31.234375 60.121094 31.558594 59.824219 31.851562 C 59.523438 32.148438 59.203125 32.414062 58.851562 32.644531 C 58.5 32.878906 58.132812 33.074219 57.742188 33.234375 C 57.355469 33.394531 56.953125 33.515625 56.542969 33.597656 C 56.128906 33.679688 55.710938 33.71875 55.289062 33.71875 C 54.871094 33.71875 54.453125 33.679688 54.039062 33.597656 C 53.628906 33.515625 53.226562 33.394531 52.839844 33.234375 C 52.449219 33.074219 52.078125 32.878906 51.730469 32.644531 C 51.378906 32.414062 51.054688 32.148438 50.757812 31.851562 C 50.460938 31.558594 50.195312 31.234375 49.960938 30.886719 C 49.726562 30.539062 49.53125 30.171875 49.371094 29.785156 C 49.207031 29.398438 49.085938 29 49.003906 28.589844 C 48.921875 28.179688 48.882812 27.765625 48.882812 27.347656 C 48.882812 26.929688 48.921875 26.515625 49.003906 26.105469 C 49.085938 25.695312 49.207031 25.296875 49.371094 24.910156 C 49.53125 24.523438 49.726562 24.15625 49.960938 23.808594 C 50.195312 23.460938 50.460938 23.140625 50.757812 22.84375 C 51.054688 22.546875 51.378906 22.285156 51.730469 22.050781 C 52.078125 21.820312 52.449219 21.625 52.839844 21.464844 C 53.226562 21.304688 53.628906 21.183594 54.039062 21.101562 C 54.453125 21.019531 54.871094 20.976562 55.289062 20.976562 C 55.710938 20.976562 56.128906 21.019531 56.542969 21.101562 C 56.953125 21.183594 57.355469 21.304688 57.742188 21.464844 C 58.132812 21.625 58.5 21.820312 58.851562 22.050781 C 59.203125 22.285156 59.523438 22.546875 59.824219 22.84375 C 60.121094 23.140625 60.386719 23.460938 60.621094 23.808594 C 60.855469 24.15625 61.050781 24.523438 61.210938 24.910156 C 61.375 25.296875 61.496094 25.695312 61.578125 26.105469 C 61.660156 26.515625 61.699219 26.929688 61.699219 27.347656 Z M 61.699219 27.347656 " fill-opacity="1" fill-rule="nonzero"/><path fill="#000000" d="M 59.632812 27.5625 C 59.523438 29.855469 57.621094 31.667969 55.289062 31.667969 C 52.890625 31.667969 50.945312 29.738281 50.945312 27.347656 C 50.945312 24.957031 52.890625 23.027344 55.289062 23.027344 C 56.390625 23.027344 57.402344 23.4375 58.164062 24.113281 C 57.101562 24.164062 56.265625 25.035156 56.265625 26.105469 C 56.265625 27.207031 57.160156 28.097656 58.269531 28.097656 C 58.800781 28.089844 59.28125 27.894531 59.632812 27.5625 Z M 59.632812 27.5625 " fill-opacity="1" fill-rule="nonzero"/><path fill="#6f9134" d="M 36.5 17.148438 C 37.09375 27.097656 37.859375 29.347656 38.472656 29.371094 C 39.140625 29.402344 39.574219 26.808594 41.695312 21.910156 C 42.199219 20.75 42.695312 19.691406 43.160156 18.75 C 42.304688 18.335938 41.183594 17.886719 39.820312 17.570312 C 38.550781 17.277344 37.414062 17.171875 36.5 17.148438 Z M 36.5 17.148438 " fill-opacity="1" fill-rule="nonzero"/><path fill="#6f9134" d="M 25.988281 17.621094 C 29.945312 26.695312 31.421875 28.546875 32.011719 28.359375 C 32.652344 28.152344 32.164062 25.574219 32.476562 20.246094 C 32.542969 19.054688 32.636719 17.949219 32.75 16.953125 C 31.742188 16.886719 30.554688 16.882812 29.21875 17.019531 C 27.984375 17.15625 26.902344 17.378906 25.988281 17.621094 Z M 25.988281 17.621094 " fill-opacity="1" fill-rule="nonzero"/><path fill="#6f9134" d="M 27.097656 29.300781 C 26.625 29.730469 24.320312 28.558594 16.03125 21.152344 C 18.167969 19.949219 20.484375 19.027344 22.835938 18.363281 C 23.1875 19.394531 23.59375 20.527344 24.082031 21.746094 C 26.054688 26.710938 27.589844 28.851562 27.097656 29.300781 Z M 27.097656 29.300781 " fill-opacity="1" fill-rule="nonzero"/><path fill="#6f9134" d="M 22.125 31.375 C 21.875 31.976562 19.214844 31.910156 8.058594 28.675781 C 9.390625 26.4375 11.148438 24.570312 13.167969 23.035156 C 14.011719 23.902344 14.988281 24.863281 16.105469 25.882812 C 20.050781 29.5 22.371094 30.753906 22.125 31.375 Z M 22.125 31.375 " fill-opacity="1" fill-rule="nonzero"/><g clip-path="url(#008d249334)"><path fill="#6f9134" d="M 17.445312 35.726562 C 17.4375 36.339844 15.230469 37.15625 5.433594 38.054688 C 5.46875 35.96875 5.824219 33.746094 6.691406 31.492188 C 6.695312 31.476562 6.699219 31.460938 6.710938 31.4375 C 7.652344 31.863281 8.699219 32.3125 9.84375 32.757812 C 14.835938 34.710938 17.457031 35.058594 17.445312 35.726562 Z M 17.445312 35.726562 " fill-opacity="1" fill-rule="nonzero"/></g><g clip-path="url(#0f5cc11ccb)"><path fill="#6f9134" d="M 6.542969 45.464844 C 6.144531 44.183594 5.789062 42.695312 5.589844 41.0625 C 10.183594 40.84375 12.382812 40.277344 12.625 40.847656 C 12.816406 41.3125 11.707031 42.484375 6.542969 45.464844 Z M 6.542969 45.464844 " fill-opacity="1" fill-rule="nonzero"/></g><path fill="#6f9134" d="M 9.480469 51.789062 C 8.988281 51.046875 8.527344 50.25 8.105469 49.398438 C 8.011719 49.210938 7.902344 48.980469 7.785156 48.722656 C 10.675781 47.523438 12.042969 46.746094 12.378906 47.132812 C 12.664062 47.464844 12.195312 48.605469 9.480469 51.789062 Z M 9.480469 51.789062 " fill-opacity="1" fill-rule="nonzero"/><path fill="#6f9134" d="M 42.378906 49.488281 C 40.484375 49.210938 39.515625 49.085938 39.453125 48.6875 C 39.40625 48.394531 39.875 47.960938 41.488281 47.308594 C 41.519531 47.363281 41.558594 47.421875 41.589844 47.472656 C 41.953125 48.121094 42.214844 48.796875 42.378906 49.488281 Z M 42.378906 49.488281 " fill-opacity="1" fill-rule="nonzero"/><path fill="#6f9134" d="M 42.597656 51.0625 C 42.636719 51.855469 42.5625 52.65625 42.398438 53.453125 C 40.773438 52.359375 39.929688 51.816406 40.050781 51.429688 C 40.140625 51.136719 40.773438 50.949219 42.597656 51.0625 Z M 42.597656 51.0625 " fill-opacity="1" fill-rule="nonzero"/><path fill="#6f9134" d="M 41.945312 55.058594 C 41.695312 55.765625 41.382812 56.445312 41.015625 57.09375 C 39.960938 55.695312 39.421875 54.984375 39.648438 54.675781 C 39.816406 54.4375 40.425781 54.453125 41.945312 55.058594 Z M 41.945312 55.058594 " fill-opacity="1" fill-rule="nonzero"/><path fill="#97be48" d="M 25.972656 33.113281 C 26.25 33.550781 25.628906 34.058594 25.039062 35.953125 C 24.703125 37.035156 24.324219 38.25 24.753906 38.582031 C 25.339844 39.039062 26.644531 37.300781 28.195312 37.65625 C 29.46875 37.949219 30.464844 39.550781 30.117188 40.234375 C 29.933594 40.601562 29.445312 40.535156 26.40625 40.613281 C 23.972656 40.675781 23.554688 40.738281 23.011719 40.351562 C 22.113281 39.714844 21.914062 38.59375 21.765625 37.714844 C 21.613281 36.839844 21.277344 34.875 22.53125 33.671875 C 23.628906 32.632812 25.585938 32.5 25.972656 33.113281 Z M 25.972656 33.113281 " fill-opacity="1" fill-rule="nonzero"/><g clip-path="url(#6c6b084645)"><path fill="#6f9134" d="M 67.128906 35.660156 C 67.089844 35.796875 67.039062 35.925781 66.988281 36.058594 C 66.882812 36.324219 66.761719 36.589844 66.625 36.839844 C 64.125 37.332031 61.542969 37.300781 59.046875 36.738281 C 58.386719 36.589844 58.667969 35.582031 59.328125 35.726562 C 61.898438 36.308594 64.566406 36.28125 67.128906 35.660156 Z M 67.128906 35.660156 " fill-opacity="1" fill-rule="nonzero"/></g></svg>