<svg xmlns="http://www.w3.org/2000/svg" xmlns:xlink="http://www.w3.org/1999/xlink" width="96" zoomAndPan="magnify" viewBox="0 0 72 72" height="96" preserveAspectRatio="xMidYMid meet" version="1.0"><defs><clipPath id="990ba98d95"><path d="M 15 16 L 67.5 16 L 67.5 63.683594 L 15 63.683594 Z M 15 16 " clip-rule="nonzero"/></clipPath><clipPath id="2750b9b68f"><path d="M 5.425781 19 L 29 19 L 29 43 L 5.425781 43 Z M 5.425781 19 " clip-rule="nonzero"/></clipPath><clipPath id="2170e8ce1b"><path d="M 55 31 L 67.5 31 L 67.5 39 L 55 39 Z M 55 31 " clip-rule="nonzero"/></clipPath><clipPath id="39640d05be"><path d="M 60 40 L 67.5 40 L 67.5 46 L 60 46 Z M 60 40 " clip-rule="nonzero"/></clipPath><clipPath id="1295c22f7c"><path d="M 5.425781 35 L 15 35 L 15 38 L 5.425781 38 Z M 5.425781 35 " clip-rule="nonzero"/></clipPath></defs><path fill="#6f9134" d="M 14.144531 10.019531 C 10.019531 10.667969 5.578125 24.460938 10.765625 28.625 C 15.367188 32.316406 26.414062 27.535156 26.851562 23.273438 C 26.984375 21.984375 25.261719 20.140625 21.816406 16.5 C 17.582031 12.046875 15.4375 9.824219 14.144531 10.019531 Z M 14.144531 10.019531 " fill-opacity="1" fill-rule="nonzero"/><g clip-path="url(#990ba98d95)"><path fill="#82ae42" d="M 21.417969 41.308594 C 23.53125 42.296875 24.984375 41.710938 28.910156 40.707031 L 28.914062 40.707031 C 30.089844 40.402344 31.488281 40.0625 33.195312 39.71875 C 45.597656 37.191406 51.070312 39.015625 52.726562 39.613281 C 54.734375 40.339844 57.816406 42.035156 58.644531 43.890625 C 60.078125 47.085938 55.546875 52.347656 51.496094 55.007812 C 49.730469 56.160156 44.175781 59.800781 39.738281 57.378906 C 36.828125 55.789062 34.863281 51.839844 35.902344 49.320312 C 36.304688 48.359375 37.398438 46.984375 38.730469 47.070312 C 39.542969 47.125 40.386719 47.71875 40.675781 48.511719 C 41.195312 49.921875 39.660156 51.207031 40.058594 51.652344 C 40.539062 52.1875 43.621094 51.292969 44.589844 48.902344 C 45.132812 47.570312 44.929688 45.949219 44.066406 44.785156 C 42.839844 43.132812 40.746094 43.050781 39.75 42.988281 C 36.65625 42.789062 33.144531 44.472656 31.4375 47.3125 C 31.40625 47.371094 31.367188 47.425781 31.335938 47.480469 C 30.972656 48.128906 30.710938 48.804688 30.546875 49.492188 C 30.421875 50.011719 30.351562 50.539062 30.324219 51.066406 C 30.289062 51.863281 30.363281 52.664062 30.527344 53.457031 L 30.527344 53.464844 C 30.636719 54 30.789062 54.539062 30.976562 55.070312 L 30.976562 55.074219 C 31.230469 55.773438 31.542969 56.453125 31.910156 57.101562 C 32.816406 58.703125 34.019531 60.089844 35.324219 61.058594 C 37.597656 62.746094 40.117188 63.113281 41.148438 63.253906 C 42.359375 63.414062 44.78125 63.582031 48.441406 62.34375 C 51.574219 61.289062 58.808594 58.839844 63.441406 51.792969 C 63.929688 51.050781 64.390625 50.257812 64.8125 49.40625 C 64.90625 49.214844 65.019531 48.984375 65.132812 48.730469 C 65.507812 47.925781 65.964844 46.808594 66.382812 45.472656 C 66.78125 44.191406 67.132812 42.699219 67.332031 41.066406 C 67.449219 40.105469 67.511719 39.097656 67.492188 38.050781 C 67.453125 35.964844 67.101562 33.738281 66.234375 31.484375 C 66.226562 31.46875 66.222656 31.453125 66.210938 31.433594 C 65.839844 30.460938 65.390625 29.535156 64.871094 28.675781 C 63.539062 26.4375 61.78125 24.570312 59.761719 23.035156 C 58.855469 22.34375 57.894531 21.714844 56.894531 21.15625 C 54.757812 19.953125 52.441406 19.03125 50.089844 18.367188 C 49.042969 18.070312 47.984375 17.824219 46.9375 17.625 L 46.910156 17.621094 C 44.605469 17.179688 42.328125 16.972656 40.207031 16.960938 L 40.175781 16.957031 C 38.992188 16.953125 37.855469 17.003906 36.796875 17.113281 C 36.675781 17.125 36.550781 17.140625 36.429688 17.15625 L 36.425781 17.15625 C 33.910156 17.441406 31.671875 18.042969 29.761719 18.753906 C 27.515625 19.585938 25.722656 20.566406 24.464844 21.351562 L 24.457031 21.351562 C 23.78125 21.769531 23.265625 22.125 22.90625 22.375 C 22.664062 22.542969 22.421875 22.710938 22.183594 22.878906 C 21.34375 23.472656 20.53125 24.0625 19.78125 24.691406 C 19.433594 24.984375 19.105469 25.28125 18.792969 25.589844 C 17.480469 26.882812 16.492188 28.378906 16.113281 30.328125 C 16.054688 30.644531 16.007812 30.960938 15.988281 31.28125 C 15.988281 31.289062 15.988281 31.289062 15.988281 31.289062 C 15.644531 35.351562 18.019531 39.71875 21.417969 41.308594 Z M 21.417969 41.308594 " fill-opacity="1" fill-rule="nonzero"/></g><path fill="#97be48" d="M 36.5625 33.113281 C 36.28125 33.550781 36.902344 34.058594 37.492188 35.953125 C 37.828125 37.035156 38.207031 38.25 37.777344 38.582031 C 37.191406 39.039062 35.886719 37.300781 34.335938 37.65625 C 33.0625 37.949219 32.066406 39.550781 32.414062 40.234375 C 32.597656 40.601562 33.089844 40.535156 36.125 40.613281 C 38.5625 40.675781 38.976562 40.738281 39.519531 40.351562 C 40.417969 39.714844 40.617188 38.59375 40.765625 37.714844 C 40.917969 36.839844 41.253906 34.875 40.003906 33.671875 C 38.90625 32.632812 36.949219 32.5 36.5625 33.113281 Z M 36.5625 33.113281 " fill-opacity="1" fill-rule="nonzero"/><g clip-path="url(#2750b9b68f)"><path fill="#97be48" d="M 5.800781 35.660156 C 5.839844 35.796875 5.886719 35.925781 5.941406 36.058594 C 6.046875 36.324219 6.167969 36.589844 6.304688 36.839844 C 6.335938 36.914062 6.371094 36.984375 6.414062 37.054688 C 6.6875 37.542969 7.007812 37.988281 7.371094 38.382812 C 8.347656 39.453125 9.554688 40.085938 13.960938 40.96875 C 24.78125 43.140625 26.96875 42.914062 28.179688 41.308594 C 28.582031 40.769531 28.65625 39.859375 28.785156 38.058594 C 29 35.070312 28.738281 32.386719 28.035156 28.714844 C 27.125 23.960938 26.648438 21.558594 25.453125 20.757812 C 23.074219 19.167969 19.515625 20.445312 18.535156 20.800781 C 17.3125 21.238281 16.171875 22.050781 13.886719 23.671875 C 11.722656 25.210938 10.28125 26.449219 9.582031 27.085938 C 7.261719 29.207031 6.105469 30.265625 5.695312 31.558594 C 5.273438 32.882812 5.363281 34.335938 5.800781 35.660156 Z M 5.800781 35.660156 " fill-opacity="1" fill-rule="nonzero"/></g><path fill="#ffffff" d="M 11.230469 27.347656 C 11.230469 27.765625 11.269531 28.179688 11.351562 28.589844 C 11.433594 29 11.554688 29.398438 11.71875 29.785156 C 11.878906 30.171875 12.074219 30.539062 12.308594 30.886719 C 12.542969 31.234375 12.808594 31.558594 13.105469 31.851562 C 13.40625 32.148438 13.726562 32.414062 14.078125 32.644531 C 14.429688 32.878906 14.796875 33.074219 15.1875 33.234375 C 15.574219 33.394531 15.976562 33.515625 16.386719 33.597656 C 16.800781 33.679688 17.21875 33.71875 17.640625 33.71875 C 18.058594 33.71875 18.476562 33.679688 18.890625 33.597656 C 19.300781 33.515625 19.703125 33.394531 20.089844 33.234375 C 20.480469 33.074219 20.851562 32.878906 21.199219 32.644531 C 21.550781 32.414062 21.875 32.148438 22.171875 31.851562 C 22.46875 31.558594 22.734375 31.234375 22.96875 30.886719 C 23.203125 30.539062 23.398438 30.171875 23.558594 29.785156 C 23.722656 29.398438 23.84375 29 23.925781 28.589844 C 24.007812 28.179688 24.046875 27.765625 24.046875 27.347656 C 24.046875 26.929688 24.007812 26.515625 23.925781 26.105469 C 23.84375 25.695312 23.722656 25.296875 23.558594 24.910156 C 23.398438 24.523438 23.203125 24.15625 22.96875 23.808594 C 22.734375 23.460938 22.46875 23.140625 22.171875 22.84375 C 21.875 22.546875 21.550781 22.285156 21.199219 22.050781 C 20.851562 21.820312 20.480469 21.625 20.089844 21.464844 C 19.703125 21.304688 19.300781 21.183594 18.890625 21.101562 C 18.476562 21.019531 18.058594 20.976562 17.640625 20.976562 C 17.21875 20.976562 16.800781 21.019531 16.386719 21.101562 C 15.976562 21.183594 15.574219 21.304688 15.1875 21.464844 C 14.796875 21.625 14.429688 21.820312 14.078125 22.050781 C 13.726562 22.285156 13.40625 22.546875 13.105469 22.84375 C 12.808594 23.140625 12.542969 23.460938 12.308594 23.808594 C 12.074219 24.15625 11.878906 24.523438 11.71875 24.910156 C 11.554688 25.296875 11.433594 25.695312 11.351562 26.105469 C 11.269531 26.515625 11.230469 26.929688 11.230469 27.347656 Z M 11.230469 27.347656 " fill-opacity="1" fill-rule="nonzero"/><path fill="#000000" d="M 13.296875 27.5625 C 13.40625 29.855469 15.308594 31.667969 17.640625 31.667969 C 20.039062 31.667969 21.984375 29.738281 21.984375 27.347656 C 21.984375 24.957031 20.039062 23.027344 17.640625 23.027344 C 16.539062 23.027344 15.527344 23.4375 14.765625 24.113281 C 15.828125 24.164062 16.664062 25.035156 16.664062 26.105469 C 16.664062 27.207031 15.769531 28.097656 14.660156 28.097656 C 14.128906 28.089844 13.648438 27.894531 13.296875 27.5625 Z M 13.296875 27.5625 " fill-opacity="1" fill-rule="nonzero"/><path fill="#6f9134" d="M 36.429688 17.148438 C 35.835938 27.097656 35.070312 29.347656 34.457031 29.371094 C 33.789062 29.402344 33.355469 26.808594 31.234375 21.910156 C 30.730469 20.75 30.234375 19.691406 29.769531 18.75 C 30.625 18.335938 31.746094 17.886719 33.109375 17.570312 C 34.378906 17.277344 35.515625 17.171875 36.429688 17.148438 Z M 36.429688 17.148438 " fill-opacity="1" fill-rule="nonzero"/><path fill="#6f9134" d="M 46.941406 17.621094 C 42.984375 26.695312 41.507812 28.546875 40.917969 28.359375 C 40.277344 28.152344 40.765625 25.574219 40.453125 20.246094 C 40.386719 19.054688 40.292969 17.949219 40.179688 16.953125 C 41.1875 16.886719 42.375 16.882812 43.710938 17.019531 C 44.945312 17.15625 46.027344 17.378906 46.941406 17.621094 Z M 46.941406 17.621094 " fill-opacity="1" fill-rule="nonzero"/><path fill="#6f9134" d="M 45.832031 29.300781 C 46.304688 29.730469 48.609375 28.558594 56.898438 21.152344 C 54.761719 19.949219 52.445312 19.027344 50.09375 18.363281 C 49.742188 19.394531 49.335938 20.527344 48.847656 21.746094 C 46.875 26.710938 45.339844 28.851562 45.832031 29.300781 Z M 45.832031 29.300781 " fill-opacity="1" fill-rule="nonzero"/><path fill="#6f9134" d="M 50.804688 31.375 C 51.054688 31.976562 53.714844 31.910156 64.871094 28.675781 C 63.539062 26.4375 61.78125 24.570312 59.761719 23.035156 C 58.917969 23.902344 57.941406 24.863281 56.824219 25.882812 C 52.878906 29.5 50.558594 30.753906 50.804688 31.375 Z M 50.804688 31.375 " fill-opacity="1" fill-rule="nonzero"/><g clip-path="url(#2170e8ce1b)"><path fill="#6f9134" d="M 55.484375 35.726562 C 55.492188 36.339844 57.699219 37.15625 67.496094 38.054688 C 67.460938 35.96875 67.105469 33.746094 66.238281 31.492188 C 66.234375 31.476562 66.230469 31.460938 66.21875 31.4375 C 65.277344 31.863281 64.230469 32.3125 63.085938 32.757812 C 58.09375 34.710938 55.472656 35.058594 55.484375 35.726562 Z M 55.484375 35.726562 " fill-opacity="1" fill-rule="nonzero"/></g><g clip-path="url(#39640d05be)"><path fill="#6f9134" d="M 66.386719 45.464844 C 66.785156 44.183594 67.140625 42.695312 67.339844 41.0625 C 62.746094 40.84375 60.546875 40.277344 60.304688 40.847656 C 60.113281 41.3125 61.222656 42.484375 66.386719 45.464844 Z M 66.386719 45.464844 " fill-opacity="1" fill-rule="nonzero"/></g><path fill="#6f9134" d="M 63.449219 51.789062 C 63.941406 51.046875 64.402344 50.25 64.824219 49.398438 C 64.917969 49.210938 65.027344 48.980469 65.144531 48.722656 C 62.253906 47.523438 60.886719 46.746094 60.550781 47.132812 C 60.265625 47.464844 60.734375 48.605469 63.449219 51.789062 Z M 63.449219 51.789062 " fill-opacity="1" fill-rule="nonzero"/><path fill="#6f9134" d="M 30.550781 49.488281 C 32.445312 49.210938 33.414062 49.085938 33.476562 48.6875 C 33.523438 48.394531 33.054688 47.960938 31.441406 47.308594 C 31.410156 47.363281 31.371094 47.421875 31.339844 47.472656 C 30.976562 48.121094 30.714844 48.796875 30.550781 49.488281 Z M 30.550781 49.488281 " fill-opacity="1" fill-rule="nonzero"/><path fill="#6f9134" d="M 30.332031 51.0625 C 30.292969 51.855469 30.367188 52.65625 30.53125 53.453125 C 32.15625 52.359375 33 51.816406 32.878906 51.429688 C 32.789062 51.136719 32.15625 50.949219 30.332031 51.0625 Z M 30.332031 51.0625 " fill-opacity="1" fill-rule="nonzero"/><path fill="#6f9134" d="M 30.984375 55.058594 C 31.234375 55.765625 31.546875 56.445312 31.914062 57.09375 C 32.96875 55.695312 33.507812 54.984375 33.28125 54.675781 C 33.113281 54.4375 32.503906 54.453125 30.984375 55.058594 Z M 30.984375 55.058594 " fill-opacity="1" fill-rule="nonzero"/><path fill="#97be48" d="M 46.957031 33.113281 C 46.679688 33.550781 47.300781 34.058594 47.890625 35.953125 C 48.226562 37.035156 48.605469 38.25 48.175781 38.582031 C 47.589844 39.039062 46.285156 37.300781 44.734375 37.65625 C 43.460938 37.949219 42.464844 39.550781 42.8125 40.234375 C 42.996094 40.601562 43.484375 40.535156 46.523438 40.613281 C 48.957031 40.675781 49.375 40.738281 49.917969 40.351562 C 50.816406 39.714844 51.015625 38.59375 51.164062 37.714844 C 51.316406 36.839844 51.652344 34.875 50.398438 33.671875 C 49.300781 32.632812 47.34375 32.5 46.957031 33.113281 Z M 46.957031 33.113281 " fill-opacity="1" fill-rule="nonzero"/><g clip-path="url(#1295c22f7c)"><path fill="#6f9134" d="M 5.800781 35.660156 C 5.839844 35.796875 5.886719 35.925781 5.941406 36.058594 C 6.046875 36.324219 6.167969 36.589844 6.304688 36.839844 C 8.804688 37.332031 11.386719 37.300781 13.882812 36.738281 C 14.542969 36.589844 14.261719 35.582031 13.601562 35.726562 C 11.03125 36.308594 8.363281 36.28125 5.800781 35.660156 Z M 5.800781 35.660156 " fill-opacity="1" fill-rule="nonzero"/></g></svg>