<svg xmlns="http://www.w3.org/2000/svg" xmlns:xlink="http://www.w3.org/1999/xlink" width="40" zoomAndPan="magnify" viewBox="0 0 30 30.000001" height="40" preserveAspectRatio="xMidYMid meet" version="1.0"><defs><clipPath id="56692d74a1"><path d="M 8.890625 1.578125 L 21.230469 1.578125 L 21.230469 27.707031 L 8.890625 27.707031 Z M 8.890625 1.578125 " clip-rule="nonzero"/></clipPath></defs><g clip-path="url(#56692d74a1)"><path fill="#ffffff" d="M 18.382812 5.917969 L 21.230469 5.917969 L 21.230469 1.628906 L 17.59375 1.628906 L 17.59375 1.644531 C 12.816406 1.820312 11.832031 4.496094 11.75 7.328125 L 11.738281 7.328125 L 11.738281 10.304688 L 8.890625 10.304688 L 8.890625 14.601562 L 11.738281 14.601562 L 11.738281 27.660156 L 16.84375 27.660156 L 16.84375 14.601562 L 20.507812 14.601562 L 21.230469 10.304688 L 16.84375 10.304688 L 16.84375 7.636719 C 16.84375 6.691406 17.480469 5.917969 18.382812 5.917969 Z M 18.382812 5.917969 " fill-opacity="1" fill-rule="nonzero"/></g></svg>