<svg xmlns="http://www.w3.org/2000/svg" xmlns:xlink="http://www.w3.org/1999/xlink" width="40" zoomAndPan="magnify" viewBox="0 0 30 30.000001" height="40" preserveAspectRatio="xMidYMid meet" version="1.0"><defs><clipPath id="42785a627b"><path d="M 4.886719 2.902344 L 26.660156 2.902344 L 26.660156 24.675781 L 4.886719 24.675781 Z M 4.886719 2.902344 " clip-rule="nonzero"/></clipPath></defs><g clip-path="url(#42785a627b)"><path fill="#ffffff" d="M 20.558594 24.621094 L 10.933594 24.621094 C 7.613281 24.621094 4.886719 21.894531 4.886719 18.574219 L 4.886719 8.949219 C 4.886719 5.628906 7.613281 2.902344 10.933594 2.902344 L 20.558594 2.902344 C 23.878906 2.902344 26.605469 5.628906 26.605469 8.949219 L 26.605469 18.574219 C 26.605469 21.894531 23.878906 24.621094 20.558594 24.621094 Z M 10.933594 4.265625 C 8.378906 4.265625 6.25 6.394531 6.25 8.949219 L 6.25 18.574219 C 6.25 21.128906 8.378906 23.257812 10.933594 23.257812 L 20.558594 23.257812 C 23.113281 23.257812 25.242188 21.128906 25.242188 18.574219 L 25.242188 8.949219 C 25.242188 6.394531 23.113281 4.265625 20.558594 4.265625 Z M 10.933594 4.265625 " fill-opacity="1" fill-rule="evenodd"/></g><path fill="#ffffff" d="M 15.746094 17.507812 C 13.703125 17.507812 12 15.804688 12 13.761719 C 12 11.71875 13.703125 10.015625 15.746094 10.015625 C 17.789062 10.015625 19.492188 11.71875 19.492188 13.761719 C 19.492188 15.804688 17.789062 17.507812 15.746094 17.507812 Z M 15.746094 11.378906 C 14.425781 11.378906 13.359375 12.441406 13.359375 13.761719 C 13.359375 15.082031 14.425781 16.148438 15.746094 16.148438 C 17.066406 16.148438 18.128906 15.082031 18.128906 13.761719 C 18.128906 12.441406 17.066406 11.378906 15.746094 11.378906 Z M 15.746094 11.378906 " fill-opacity="1" fill-rule="evenodd"/><path fill="#ffffff" d="M 15.746094 19.894531 C 12.382812 19.894531 9.613281 17.125 9.613281 13.761719 C 9.613281 10.398438 12.382812 7.628906 15.746094 7.628906 C 19.109375 7.628906 21.878906 10.398438 21.878906 13.761719 C 21.878906 17.125 19.109375 19.894531 15.746094 19.894531 Z M 15.746094 8.992188 C 13.105469 8.992188 10.976562 11.121094 10.976562 13.761719 C 10.976562 16.402344 13.105469 18.53125 15.746094 18.53125 C 18.386719 18.53125 20.515625 16.402344 20.515625 13.761719 C 20.515625 11.121094 18.386719 8.992188 15.746094 8.992188 Z M 15.746094 8.992188 " fill-opacity="1" fill-rule="evenodd"/><path fill="#ffffff" d="M 10.722656 7.929688 L 9.230469 7.929688 C 8.847656 7.929688 8.550781 7.628906 8.550781 7.246094 C 8.550781 6.863281 8.847656 6.566406 9.230469 6.566406 L 10.722656 6.566406 C 11.105469 6.566406 11.402344 6.863281 11.402344 7.246094 C 11.402344 7.628906 11.105469 7.929688 10.722656 7.929688 Z M 10.722656 7.929688 " fill-opacity="1" fill-rule="evenodd"/></svg>