<svg xmlns="http://www.w3.org/2000/svg" xmlns:xlink="http://www.w3.org/1999/xlink" width="300" zoomAndPan="magnify" viewBox="0 0 224.87999 67.499998" height="90" preserveAspectRatio="xMidYMid meet" version="1.0"><defs><g/></defs><g fill="#000000" fill-opacity="1"><g transform="translate(26.666704, 36.785224)"><g><path d="M 16.78125 0 L -0.265625 0 L 3.890625 -19.46875 L 20.875 -19.46875 L 19.984375 -15.28125 L 7.46875 -15.28125 L 6.75 -11.859375 L 18.453125 -11.859375 L 17.640625 -7.96875 L 5.90625 -7.96875 L 5.109375 -4.265625 L 17.6875 -4.265625 Z M 16.78125 0 "/></g></g></g><g fill="#000000" fill-opacity="1"><g transform="translate(45.887995, 36.785224)"><g><path d="M 8.734375 0.3125 C 6.617188 0.3125 4.9375 -0.00390625 3.6875 -0.640625 C 2.445312 -1.285156 1.601562 -2.171875 1.15625 -3.296875 C 0.71875 -4.421875 0.648438 -5.710938 0.953125 -7.171875 C 1.265625 -8.617188 1.878906 -9.894531 2.796875 -11 C 3.710938 -12.113281 4.9375 -12.984375 6.46875 -13.609375 C 8 -14.242188 9.816406 -14.5625 11.921875 -14.5625 C 13.140625 -14.5625 14.316406 -14.445312 15.453125 -14.21875 C 16.585938 -13.988281 17.550781 -13.710938 18.34375 -13.390625 L 15.8125 -9.765625 C 15.25 -9.992188 14.585938 -10.175781 13.828125 -10.3125 C 13.078125 -10.457031 12.253906 -10.53125 11.359375 -10.53125 C 9.785156 -10.53125 8.488281 -10.253906 7.46875 -9.703125 C 6.457031 -9.148438 5.832031 -8.304688 5.59375 -7.171875 C 5.332031 -5.992188 5.578125 -5.117188 6.328125 -4.546875 C 7.085938 -3.984375 8.28125 -3.703125 9.90625 -3.703125 C 10.738281 -3.703125 11.582031 -3.773438 12.4375 -3.921875 C 13.300781 -4.078125 14.078125 -4.273438 14.765625 -4.515625 L 15.71875 -0.859375 C 15.15625 -0.617188 14.460938 -0.410156 13.640625 -0.234375 C 12.816406 -0.0546875 11.96875 0.078125 11.09375 0.171875 C 10.226562 0.265625 9.441406 0.3125 8.734375 0.3125 Z M 8.734375 0.3125 "/></g></g></g><g fill="#000000" fill-opacity="1"><g transform="translate(63.381531, 36.785224)"><g><path d="M 9.1875 0.40625 C 7.125 0.40625 5.425781 0.09375 4.09375 -0.53125 C 2.769531 -1.164062 1.835938 -2.050781 1.296875 -3.1875 C 0.753906 -4.320312 0.640625 -5.632812 0.953125 -7.125 C 1.273438 -8.613281 1.941406 -9.914062 2.953125 -11.03125 C 3.972656 -12.15625 5.28125 -13.03125 6.875 -13.65625 C 8.476562 -14.28125 10.304688 -14.59375 12.359375 -14.59375 C 14.410156 -14.59375 16.101562 -14.28125 17.4375 -13.65625 C 18.769531 -13.03125 19.707031 -12.15625 20.25 -11.03125 C 20.800781 -9.914062 20.914062 -8.613281 20.59375 -7.125 C 20.289062 -5.632812 19.625 -4.320312 18.59375 -3.1875 C 17.570312 -2.050781 16.265625 -1.164062 14.671875 -0.53125 C 13.078125 0.09375 11.25 0.40625 9.1875 0.40625 Z M 10.03125 -3.625 C 11.101562 -3.625 12.066406 -3.769531 12.921875 -4.0625 C 13.773438 -4.363281 14.472656 -4.78125 15.015625 -5.3125 C 15.566406 -5.851562 15.914062 -6.46875 16.0625 -7.15625 C 16.28125 -8.195312 15.976562 -9.023438 15.15625 -9.640625 C 14.34375 -10.253906 13.125 -10.5625 11.5 -10.5625 C 9.894531 -10.5625 8.546875 -10.253906 7.453125 -9.640625 C 6.367188 -9.023438 5.71875 -8.195312 5.5 -7.15625 C 5.289062 -6.113281 5.582031 -5.265625 6.375 -4.609375 C 7.175781 -3.953125 8.394531 -3.625 10.03125 -3.625 Z M 10.03125 -3.625 "/></g></g></g><g fill="#000000" fill-opacity="1"><g transform="translate(84.882501, 36.785224)"><g><path d="M 23.828125 -14.59375 C 25.710938 -14.59375 27.109375 -14.140625 28.015625 -13.234375 C 28.921875 -12.328125 29.175781 -10.957031 28.78125 -9.125 L 26.8125 0 L 22.296875 0 L 24.046875 -8.296875 C 24.222656 -9.242188 24.054688 -9.910156 23.546875 -10.296875 C 23.046875 -10.691406 22.390625 -10.890625 21.578125 -10.890625 C 20.628906 -10.890625 19.769531 -10.609375 19 -10.046875 C 18.238281 -9.492188 17.625 -8.625 17.15625 -7.4375 L 15.53125 0 L 11.015625 0 L 12.765625 -8.296875 C 12.941406 -9.148438 12.800781 -9.796875 12.34375 -10.234375 C 11.882812 -10.671875 11.207031 -10.890625 10.3125 -10.890625 C 9.34375 -10.890625 8.507812 -10.628906 7.8125 -10.109375 C 7.113281 -9.597656 6.476562 -8.769531 5.90625 -7.625 L 4.265625 0 L -0.265625 0 L 2.71875 -13.96875 L 7.25 -13.96875 L 6.703125 -11.421875 C 7.492188 -12.609375 8.382812 -13.429688 9.375 -13.890625 C 10.375 -14.359375 11.429688 -14.59375 12.546875 -14.59375 C 14.003906 -14.59375 15.195312 -14.296875 16.125 -13.703125 C 17.050781 -13.109375 17.554688 -12.195312 17.640625 -10.96875 C 18.441406 -12.3125 19.382812 -13.25 20.46875 -13.78125 C 21.5625 -14.320312 22.679688 -14.59375 23.828125 -14.59375 Z M 23.828125 -14.59375 "/></g></g></g><g fill="#000000" fill-opacity="1"><g transform="translate(185.620286, 24.703219)"><g><path d="M 1.765625 -10.578125 L 8.578125 -10.578125 L 8.3125 -9.296875 L 5.578125 -9.296875 L 4.609375 -4.703125 L 3.234375 -4.703125 L 4.21875 -9.296875 L 1.484375 -9.296875 Z M 12.109375 -5.75 L 14.84375 -10.578125 L 17.15625 -10.578125 L 15.90625 -4.703125 L 14.546875 -4.703125 L 15.546875 -9.453125 L 12.84375 -4.703125 L 10.96875 -4.703125 L 10.28125 -9.453125 L 9.28125 -4.703125 L 7.90625 -4.703125 L 9.15625 -10.578125 L 11.421875 -10.578125 Z M 12.109375 -5.75 "/></g></g></g><g fill="#8cd423" fill-opacity="1"><g transform="translate(114.274395, 40.084424)"><g><path d="M 10.578125 0.359375 C 8.203125 0.359375 6.039062 0.160156 4.09375 -0.234375 C 2.15625 -0.628906 0.632812 -1.140625 -0.46875 -1.765625 L 2.5625 -5.96875 C 3.632812 -5.394531 4.882812 -4.929688 6.3125 -4.578125 C 7.75 -4.222656 9.21875 -4.046875 10.71875 -4.046875 C 12.289062 -4.046875 13.546875 -4.128906 14.484375 -4.296875 C 15.421875 -4.472656 16.113281 -4.722656 16.5625 -5.046875 C 17.007812 -5.367188 17.28125 -5.75 17.375 -6.1875 C 17.476562 -6.644531 17.375 -7.023438 17.0625 -7.328125 C 16.75 -7.628906 16.15625 -7.914062 15.28125 -8.1875 C 14.40625 -8.46875 13.148438 -8.789062 11.515625 -9.15625 C 9.347656 -9.59375 7.632812 -10.128906 6.375 -10.765625 C 5.125 -11.410156 4.285156 -12.21875 3.859375 -13.1875 C 3.429688 -14.164062 3.363281 -15.359375 3.65625 -16.765625 C 4.070312 -18.773438 5.242188 -20.257812 7.171875 -21.21875 C 9.097656 -22.1875 11.671875 -22.671875 14.890625 -22.671875 C 16.253906 -22.671875 17.578125 -22.566406 18.859375 -22.359375 C 20.140625 -22.148438 21.316406 -21.878906 22.390625 -21.546875 C 23.460938 -21.210938 24.351562 -20.847656 25.0625 -20.453125 L 22.046875 -16.359375 C 21.472656 -16.703125 20.765625 -17 19.921875 -17.25 C 19.078125 -17.507812 18.175781 -17.71875 17.21875 -17.875 C 16.269531 -18.03125 15.347656 -18.109375 14.453125 -18.109375 C 10.921875 -18.109375 9.023438 -17.523438 8.765625 -16.359375 C 8.691406 -15.984375 8.765625 -15.660156 8.984375 -15.390625 C 9.203125 -15.117188 9.671875 -14.851562 10.390625 -14.59375 C 11.109375 -14.332031 12.160156 -14.039062 13.546875 -13.71875 C 16.054688 -13.195312 18.015625 -12.609375 19.421875 -11.953125 C 20.835938 -11.296875 21.785156 -10.472656 22.265625 -9.484375 C 22.742188 -8.492188 22.816406 -7.226562 22.484375 -5.6875 C 22.046875 -3.613281 20.8125 -2.085938 18.78125 -1.109375 C 16.757812 -0.128906 14.023438 0.359375 10.578125 0.359375 Z M 10.578125 0.359375 "/></g></g></g><g fill="#8cd423" fill-opacity="1"><g transform="translate(138.318016, 40.084424)"><g><path d="M 4.859375 0 L -0.296875 0 L 4.453125 -22.296875 L 9.625 -22.296875 Z M 4.859375 0 "/></g></g></g><g fill="#8cd423" fill-opacity="1"><g transform="translate(146.314236, 40.084424)"><g><path d="M 4.859375 0 L -0.296875 0 L 4.453125 -22.296875 L 9.625 -22.296875 Z M 4.859375 0 "/></g></g></g><g fill="#8cd423" fill-opacity="1"><g transform="translate(154.310456, 40.084424)"><g><path d="M 13.171875 -16.6875 C 14.554688 -16.6875 15.832031 -16.5 17 -16.125 C 18.164062 -15.757812 19.144531 -15.195312 19.9375 -14.4375 C 20.738281 -13.675781 21.289062 -12.707031 21.59375 -11.53125 C 21.894531 -10.363281 21.867188 -8.972656 21.515625 -7.359375 L 21.4375 -7.0625 L 6.1875 -7.0625 C 6.21875 -6.125 6.632812 -5.382812 7.4375 -4.84375 C 8.25 -4.3125 9.535156 -4.046875 11.296875 -4.046875 C 12.546875 -4.046875 13.753906 -4.195312 14.921875 -4.5 C 16.097656 -4.8125 17.1875 -5.171875 18.1875 -5.578125 L 19.625 -1.59375 C 18.96875 -1.28125 18.132812 -0.960938 17.125 -0.640625 C 16.113281 -0.328125 15.007812 -0.0703125 13.8125 0.125 C 12.613281 0.332031 11.390625 0.4375 10.140625 0.4375 C 8.015625 0.4375 6.203125 0.09375 4.703125 -0.59375 C 3.210938 -1.28125 2.140625 -2.265625 1.484375 -3.546875 C 0.828125 -4.828125 0.691406 -6.359375 1.078125 -8.140625 C 1.421875 -9.785156 2.144531 -11.253906 3.25 -12.546875 C 4.363281 -13.835938 5.765625 -14.847656 7.453125 -15.578125 C 9.148438 -16.316406 11.054688 -16.6875 13.171875 -16.6875 Z M 12.375 -12.609375 C 11.289062 -12.609375 10.257812 -12.390625 9.28125 -11.953125 C 8.3125 -11.515625 7.546875 -10.828125 6.984375 -9.890625 L 16.765625 -9.890625 C 16.691406 -10.710938 16.265625 -11.367188 15.484375 -11.859375 C 14.703125 -12.359375 13.664062 -12.609375 12.375 -12.609375 Z M 12.375 -12.609375 "/></g></g></g><g fill="#8cd423" fill-opacity="1"><g transform="translate(177.007631, 40.084424)"><g><path d="M 8.265625 -16 L 7.359375 -11.6875 C 8.171875 -13.28125 9.328125 -14.515625 10.828125 -15.390625 C 12.328125 -16.265625 14.40625 -16.703125 17.0625 -16.703125 L 15.890625 -12.265625 C 13.847656 -12.265625 12.171875 -12.082031 10.859375 -11.71875 C 9.554688 -11.363281 8.53125 -10.71875 7.78125 -9.78125 C 7.03125 -8.84375 6.46875 -7.503906 6.09375 -5.765625 L 4.859375 0 L -0.296875 0 L 3.109375 -16 Z M 8.265625 -16 "/></g></g></g><g fill="#000000" fill-opacity="1"><g transform="translate(118.455672, 51.727411)"><g><path d="M 5.09375 0.140625 C 4.332031 0.140625 3.648438 0.0351562 3.046875 -0.171875 C 2.441406 -0.390625 1.9375 -0.695312 1.53125 -1.09375 C 1.132812 -1.488281 0.859375 -1.960938 0.703125 -2.515625 C 0.546875 -3.078125 0.539062 -3.691406 0.6875 -4.359375 C 0.875 -5.265625 1.238281 -6.050781 1.78125 -6.71875 C 2.332031 -7.394531 3.046875 -7.914062 3.921875 -8.28125 C 4.804688 -8.65625 5.832031 -8.84375 7 -8.84375 C 8.070312 -8.84375 8.96875 -8.65625 9.6875 -8.28125 C 10.414062 -7.914062 10.929688 -7.394531 11.234375 -6.71875 C 11.546875 -6.050781 11.609375 -5.265625 11.421875 -4.359375 C 11.222656 -3.460938 10.847656 -2.675781 10.296875 -2 C 9.742188 -1.320312 9.03125 -0.796875 8.15625 -0.421875 C 7.28125 -0.046875 6.257812 0.140625 5.09375 0.140625 Z M 5.484375 -1.71875 C 6.171875 -1.71875 6.785156 -1.828125 7.328125 -2.046875 C 7.867188 -2.265625 8.316406 -2.566406 8.671875 -2.953125 C 9.023438 -3.347656 9.257812 -3.816406 9.375 -4.359375 C 9.488281 -4.890625 9.453125 -5.347656 9.265625 -5.734375 C 9.078125 -6.128906 8.753906 -6.4375 8.296875 -6.65625 C 7.847656 -6.875 7.285156 -6.984375 6.609375 -6.984375 C 5.546875 -6.984375 4.675781 -6.75 4 -6.28125 C 3.320312 -5.8125 2.894531 -5.171875 2.71875 -4.359375 C 2.550781 -3.554688 2.710938 -2.914062 3.203125 -2.4375 C 3.691406 -1.957031 4.453125 -1.71875 5.484375 -1.71875 Z M 5.484375 -1.71875 "/></g></g></g><g fill="#000000" fill-opacity="1"><g transform="translate(130.025624, 51.727411)"><g><path d="M 1.890625 0 L -0.125 0 L 1.734375 -8.6875 L 9.375 -8.6875 L 8.984375 -6.828125 L 3.328125 -6.828125 L 3.015625 -5.296875 L 8.296875 -5.296875 L 7.9375 -3.5625 L 2.640625 -3.5625 Z M 1.890625 0 "/></g></g></g><g fill="#000000" fill-opacity="1"><g transform="translate(138.603901, 51.727411)"><g><path d="M 1.890625 0 L -0.125 0 L 1.734375 -8.6875 L 9.375 -8.6875 L 8.984375 -6.828125 L 3.328125 -6.828125 L 3.015625 -5.296875 L 8.296875 -5.296875 L 7.9375 -3.5625 L 2.640625 -3.5625 Z M 1.890625 0 "/></g></g></g><g fill="#000000" fill-opacity="1"><g transform="translate(147.182179, 51.727411)"><g><path d="M 1.890625 0 L -0.125 0 L 1.734375 -8.6875 L 3.734375 -8.6875 Z M 1.890625 0 "/></g></g></g><g fill="#000000" fill-opacity="1"><g transform="translate(150.281081, 51.727411)"><g><path d="M 4.9375 0.15625 C 4.195312 0.15625 3.53125 0.0507812 2.9375 -0.15625 C 2.351562 -0.375 1.867188 -0.675781 1.484375 -1.0625 C 1.097656 -1.457031 0.828125 -1.929688 0.671875 -2.484375 C 0.523438 -3.035156 0.523438 -3.644531 0.671875 -4.3125 C 0.867188 -5.226562 1.234375 -6.023438 1.765625 -6.703125 C 2.304688 -7.378906 3.003906 -7.90625 3.859375 -8.28125 C 4.710938 -8.65625 5.707031 -8.84375 6.84375 -8.84375 C 7.25 -8.84375 7.664062 -8.8125 8.09375 -8.75 C 8.53125 -8.6875 8.945312 -8.59375 9.34375 -8.46875 C 9.75 -8.34375 10.109375 -8.195312 10.421875 -8.03125 L 9.203125 -6.3125 C 8.835938 -6.507812 8.414062 -6.671875 7.9375 -6.796875 C 7.457031 -6.921875 6.957031 -6.984375 6.4375 -6.984375 C 5.445312 -6.984375 4.625 -6.75 3.96875 -6.28125 C 3.3125 -5.8125 2.894531 -5.15625 2.71875 -4.3125 C 2.601562 -3.789062 2.632812 -3.332031 2.8125 -2.9375 C 3 -2.539062 3.304688 -2.238281 3.734375 -2.03125 C 4.160156 -1.820312 4.691406 -1.71875 5.328125 -1.71875 C 5.816406 -1.71875 6.328125 -1.773438 6.859375 -1.890625 C 7.390625 -2.003906 7.894531 -2.164062 8.375 -2.375 L 8.859375 -0.65625 C 8.484375 -0.5 8.070312 -0.359375 7.625 -0.234375 C 7.175781 -0.109375 6.71875 -0.015625 6.25 0.046875 C 5.789062 0.117188 5.351562 0.15625 4.9375 0.15625 Z M 4.9375 0.15625 "/></g></g></g><g fill="#000000" fill-opacity="1"><g transform="translate(159.985256, 51.727411)"><g><path d="M 1.890625 0 L -0.125 0 L 1.734375 -8.6875 L 3.734375 -8.6875 Z M 1.890625 0 "/></g></g></g><g fill="#000000" fill-opacity="1"><g transform="translate(163.084158, 51.727411)"><g><path d="M 10.53125 0 L 8.484375 0 L 7.9375 -2 L 3.015625 -2 L 1.625 0 L -0.53125 0 L 5.6875 -8.6875 L 8 -8.6875 Z M 7.46875 -3.71875 L 6.5625 -7.125 L 4.21875 -3.71875 Z M 7.46875 -3.71875 "/></g></g></g><g fill="#000000" fill-opacity="1"><g transform="translate(174.407482, 51.727411)"><g><path d="M 7.5 0 L -0.125 0 L 1.734375 -8.6875 L 3.734375 -8.6875 L 2.28125 -1.859375 L 7.890625 -1.859375 Z M 7.5 0 "/></g></g></g><g fill="#000000" fill-opacity="1"><g transform="translate(182.782027, 51.727411)"><g><path d="M 1.015625 0.125 C 0.710938 0.125 0.457031 0.0507812 0.25 -0.09375 C 0.0507812 -0.25 -0.015625 -0.484375 0.046875 -0.796875 C 0.109375 -1.066406 0.265625 -1.28125 0.515625 -1.4375 C 0.773438 -1.59375 1.066406 -1.671875 1.390625 -1.671875 C 1.722656 -1.671875 1.976562 -1.59375 2.15625 -1.4375 C 2.34375 -1.28125 2.410156 -1.066406 2.359375 -0.796875 C 2.296875 -0.484375 2.132812 -0.25 1.875 -0.09375 C 1.613281 0.0507812 1.328125 0.125 1.015625 0.125 Z M 1.015625 0.125 "/></g></g></g></svg>