<svg xmlns="http://www.w3.org/2000/svg" xmlns:xlink="http://www.w3.org/1999/xlink" width="300" zoomAndPan="magnify" viewBox="0 0 224.87999 67.499998" height="90" preserveAspectRatio="xMidYMid meet" version="1.0"><defs><g/><clipPath id="ca22961217"><path d="M 10.101562 22 L 48 22 L 48 56.371094 L 10.101562 56.371094 Z M 10.101562 22 " clip-rule="nonzero"/></clipPath><clipPath id="94be610e7d"><path d="M 38 24 L 55.515625 24 L 55.515625 41 L 38 41 Z M 38 24 " clip-rule="nonzero"/></clipPath><clipPath id="8f5c06fcae"><path d="M 10.101562 32 L 19 32 L 19 38 L 10.101562 38 Z M 10.101562 32 " clip-rule="nonzero"/></clipPath><clipPath id="844c1fb985"><path d="M 10.101562 39 L 16 39 L 16 44 L 10.101562 44 Z M 10.101562 39 " clip-rule="nonzero"/></clipPath><clipPath id="5a13416d27"><path d="M 48 35 L 55.515625 35 L 55.515625 38 L 48 38 Z M 48 35 " clip-rule="nonzero"/></clipPath></defs><path fill="#6f9134" d="M 49.027344 17.15625 C 52.035156 17.628906 55.277344 27.710938 51.492188 30.753906 C 48.136719 33.453125 40.074219 29.957031 39.757812 26.84375 C 39.660156 25.898438 40.914062 24.550781 43.429688 21.890625 C 46.519531 18.636719 48.082031 17.011719 49.027344 17.15625 Z M 49.027344 17.15625 " fill-opacity="1" fill-rule="nonzero"/><g clip-path="url(#ca22961217)"><path fill="#82ae42" d="M 43.722656 40.023438 C 42.179688 40.746094 41.117188 40.316406 38.253906 39.582031 L 38.25 39.582031 C 37.394531 39.359375 36.375 39.113281 35.128906 38.859375 C 26.082031 37.015625 22.089844 38.347656 20.878906 38.785156 C 19.414062 39.316406 17.167969 40.554688 16.5625 41.910156 C 15.515625 44.246094 18.824219 48.089844 21.777344 50.035156 C 23.066406 50.878906 27.117188 53.539062 30.355469 51.769531 C 32.476562 50.605469 33.914062 47.722656 33.152344 45.878906 C 32.863281 45.175781 32.0625 44.167969 31.089844 44.234375 C 30.496094 44.273438 29.882812 44.707031 29.671875 45.285156 C 29.292969 46.316406 30.414062 47.257812 30.121094 47.582031 C 29.769531 47.972656 27.523438 47.320312 26.816406 45.574219 C 26.417969 44.597656 26.570312 43.414062 27.199219 42.5625 C 28.09375 41.355469 29.621094 41.296875 30.347656 41.25 C 32.605469 41.105469 35.164062 42.335938 36.414062 44.410156 C 36.433594 44.453125 36.460938 44.496094 36.484375 44.53125 C 36.75 45.007812 36.941406 45.5 37.0625 46.003906 C 37.152344 46.382812 37.203125 46.769531 37.222656 47.15625 C 37.25 47.734375 37.195312 48.320312 37.078125 48.902344 L 37.078125 48.90625 C 36.996094 49.300781 36.882812 49.695312 36.746094 50.078125 L 36.746094 50.082031 C 36.5625 50.59375 36.335938 51.09375 36.066406 51.566406 C 35.40625 52.734375 34.527344 53.75 33.574219 54.457031 C 31.917969 55.691406 30.078125 55.957031 29.324219 56.0625 C 28.441406 56.179688 26.675781 56.300781 24.003906 55.398438 C 21.722656 54.625 16.441406 52.835938 13.066406 47.6875 C 12.707031 47.144531 12.371094 46.5625 12.0625 45.941406 C 11.992188 45.800781 11.914062 45.632812 11.828125 45.445312 C 11.554688 44.859375 11.222656 44.042969 10.917969 43.066406 C 10.625 42.128906 10.371094 41.039062 10.222656 39.847656 C 10.140625 39.144531 10.09375 38.40625 10.109375 37.640625 C 10.136719 36.117188 10.394531 34.492188 11.027344 32.84375 C 11.03125 32.832031 11.035156 32.820312 11.042969 32.804688 C 11.3125 32.09375 11.640625 31.417969 12.019531 30.789062 C 12.992188 29.15625 14.273438 27.789062 15.746094 26.667969 C 16.40625 26.160156 17.109375 25.703125 17.839844 25.292969 C 19.398438 24.414062 21.085938 23.742188 22.804688 23.257812 C 23.566406 23.039062 24.339844 22.859375 25.101562 22.714844 L 25.121094 22.710938 C 26.804688 22.390625 28.464844 22.234375 30.011719 22.230469 L 30.035156 22.226562 C 30.898438 22.222656 31.730469 22.257812 32.5 22.339844 C 32.589844 22.347656 32.679688 22.359375 32.769531 22.371094 L 32.773438 22.371094 C 34.609375 22.582031 36.238281 23.019531 37.632812 23.539062 C 39.273438 24.148438 40.582031 24.863281 41.5 25.4375 L 41.503906 25.4375 C 41.996094 25.742188 42.375 26 42.636719 26.183594 C 42.8125 26.308594 42.988281 26.429688 43.160156 26.550781 C 43.773438 26.988281 44.367188 27.417969 44.914062 27.878906 C 45.167969 28.09375 45.40625 28.308594 45.636719 28.535156 C 46.59375 29.480469 47.316406 30.574219 47.589844 32 C 47.632812 32.226562 47.667969 32.460938 47.683594 32.695312 C 47.683594 32.699219 47.683594 32.699219 47.683594 32.699219 C 47.933594 35.667969 46.203125 38.859375 43.722656 40.023438 Z M 43.722656 40.023438 " fill-opacity="1" fill-rule="nonzero"/></g><path fill="#97be48" d="M 32.671875 34.03125 C 32.875 34.355469 32.421875 34.722656 31.992188 36.109375 C 31.75 36.898438 31.472656 37.785156 31.785156 38.03125 C 32.210938 38.363281 33.164062 37.09375 34.296875 37.355469 C 35.226562 37.566406 35.953125 38.738281 35.699219 39.238281 C 35.5625 39.507812 35.207031 39.457031 32.992188 39.515625 C 31.214844 39.558594 30.910156 39.605469 30.515625 39.324219 C 29.859375 38.855469 29.714844 38.039062 29.605469 37.394531 C 29.496094 36.757812 29.25 35.320312 30.164062 34.441406 C 30.960938 33.679688 32.390625 33.585938 32.671875 34.03125 Z M 32.671875 34.03125 " fill-opacity="1" fill-rule="nonzero"/><g clip-path="url(#94be610e7d)"><path fill="#97be48" d="M 55.117188 35.894531 C 55.085938 35.992188 55.050781 36.089844 55.011719 36.183594 C 54.933594 36.378906 54.847656 36.574219 54.746094 36.757812 C 54.722656 36.8125 54.695312 36.859375 54.667969 36.914062 C 54.464844 37.269531 54.230469 37.59375 53.96875 37.886719 C 53.257812 38.664062 52.375 39.128906 49.160156 39.773438 C 41.269531 41.359375 39.671875 41.195312 38.789062 40.023438 C 38.492188 39.628906 38.4375 38.964844 38.347656 37.648438 C 38.191406 35.460938 38.382812 33.5 38.890625 30.816406 C 39.554688 27.34375 39.90625 25.589844 40.777344 25.003906 C 42.511719 23.839844 45.105469 24.773438 45.824219 25.035156 C 46.714844 25.355469 47.550781 25.949219 49.214844 27.132812 C 50.792969 28.257812 51.84375 29.164062 52.355469 29.628906 C 54.046875 31.175781 54.890625 31.953125 55.191406 32.898438 C 55.5 33.863281 55.433594 34.925781 55.117188 35.894531 Z M 55.117188 35.894531 " fill-opacity="1" fill-rule="nonzero"/></g><path fill="#ffffff" d="M 51.152344 29.820312 C 51.152344 30.125 51.125 30.429688 51.0625 30.726562 C 51.003906 31.027344 50.914062 31.320312 50.796875 31.601562 C 50.679688 31.882812 50.535156 32.152344 50.367188 32.40625 C 50.195312 32.660156 50 32.894531 49.785156 33.113281 C 49.566406 33.328125 49.332031 33.519531 49.074219 33.691406 C 48.820312 33.859375 48.550781 34.003906 48.265625 34.121094 C 47.984375 34.238281 47.691406 34.328125 47.390625 34.386719 C 47.089844 34.445312 46.785156 34.476562 46.476562 34.476562 C 46.171875 34.476562 45.867188 34.445312 45.566406 34.386719 C 45.265625 34.328125 44.972656 34.238281 44.6875 34.121094 C 44.40625 34.003906 44.136719 33.859375 43.878906 33.691406 C 43.625 33.519531 43.390625 33.328125 43.171875 33.113281 C 42.953125 32.894531 42.761719 32.660156 42.589844 32.40625 C 42.417969 32.152344 42.277344 31.882812 42.15625 31.601562 C 42.039062 31.320312 41.953125 31.027344 41.890625 30.726562 C 41.832031 30.429688 41.800781 30.125 41.800781 29.820312 C 41.800781 29.515625 41.832031 29.210938 41.890625 28.910156 C 41.953125 28.613281 42.039062 28.320312 42.15625 28.039062 C 42.277344 27.757812 42.417969 27.488281 42.589844 27.234375 C 42.761719 26.980469 42.953125 26.742188 43.171875 26.527344 C 43.390625 26.3125 43.625 26.117188 43.878906 25.949219 C 44.136719 25.777344 44.40625 25.636719 44.6875 25.519531 C 44.972656 25.402344 45.265625 25.3125 45.566406 25.253906 C 45.867188 25.195312 46.171875 25.164062 46.476562 25.164062 C 46.785156 25.164062 47.089844 25.195312 47.390625 25.253906 C 47.691406 25.3125 47.984375 25.402344 48.265625 25.519531 C 48.550781 25.636719 48.820312 25.777344 49.074219 25.949219 C 49.332031 26.117188 49.566406 26.3125 49.785156 26.527344 C 50 26.742188 50.195312 26.980469 50.367188 27.234375 C 50.535156 27.488281 50.679688 27.757812 50.796875 28.039062 C 50.914062 28.320312 51.003906 28.613281 51.0625 28.910156 C 51.125 29.210938 51.152344 29.515625 51.152344 29.820312 Z M 51.152344 29.820312 " fill-opacity="1" fill-rule="nonzero"/><path fill="#000000" d="M 49.644531 29.976562 C 49.5625 31.652344 48.179688 32.976562 46.476562 32.976562 C 44.726562 32.976562 43.308594 31.566406 43.308594 29.820312 C 43.308594 28.074219 44.726562 26.664062 46.476562 26.664062 C 47.28125 26.664062 48.015625 26.960938 48.574219 27.453125 C 47.796875 27.492188 47.1875 28.128906 47.1875 28.910156 C 47.1875 29.71875 47.839844 30.367188 48.652344 30.367188 C 49.039062 30.363281 49.386719 30.21875 49.644531 29.976562 Z M 49.644531 29.976562 " fill-opacity="1" fill-rule="nonzero"/><path fill="#6f9134" d="M 32.769531 22.367188 C 33.203125 29.636719 33.757812 31.28125 34.207031 31.300781 C 34.695312 31.324219 35.011719 29.425781 36.558594 25.84375 C 36.925781 24.996094 37.289062 24.222656 37.628906 23.535156 C 37.003906 23.234375 36.1875 22.90625 35.191406 22.671875 C 34.265625 22.457031 33.4375 22.382812 32.769531 22.367188 Z M 32.769531 22.367188 " fill-opacity="1" fill-rule="nonzero"/><path fill="#6f9134" d="M 25.097656 22.710938 C 27.984375 29.34375 29.066406 30.695312 29.496094 30.558594 C 29.964844 30.410156 29.605469 28.523438 29.832031 24.628906 C 29.882812 23.757812 29.953125 22.949219 30.03125 22.222656 C 29.300781 22.175781 28.429688 22.171875 27.457031 22.269531 C 26.558594 22.371094 25.765625 22.535156 25.097656 22.710938 Z M 25.097656 22.710938 " fill-opacity="1" fill-rule="nonzero"/><path fill="#6f9134" d="M 25.910156 31.246094 C 25.5625 31.558594 23.882812 30.703125 17.835938 25.289062 C 19.394531 24.410156 21.082031 23.738281 22.800781 23.253906 C 23.058594 24.007812 23.351562 24.835938 23.710938 25.726562 C 25.148438 29.355469 26.269531 30.917969 25.910156 31.246094 Z M 25.910156 31.246094 " fill-opacity="1" fill-rule="nonzero"/><path fill="#6f9134" d="M 22.28125 32.761719 C 22.101562 33.203125 20.160156 33.152344 12.019531 30.789062 C 12.992188 29.15625 14.273438 27.789062 15.746094 26.667969 C 16.363281 27.300781 17.074219 28.003906 17.890625 28.75 C 20.769531 31.390625 22.460938 32.308594 22.28125 32.761719 Z M 22.28125 32.761719 " fill-opacity="1" fill-rule="nonzero"/><g clip-path="url(#8f5c06fcae)"><path fill="#6f9134" d="M 18.867188 35.945312 C 18.859375 36.390625 17.253906 36.988281 10.105469 37.644531 C 10.132812 36.121094 10.390625 34.496094 11.023438 32.847656 C 11.027344 32.835938 11.03125 32.824219 11.039062 32.808594 C 11.726562 33.117188 12.488281 33.449219 13.320312 33.773438 C 16.964844 35.203125 18.875 35.453125 18.867188 35.945312 Z M 18.867188 35.945312 " fill-opacity="1" fill-rule="nonzero"/></g><g clip-path="url(#844c1fb985)"><path fill="#6f9134" d="M 10.914062 43.0625 C 10.621094 42.125 10.367188 41.035156 10.21875 39.84375 C 13.570312 39.683594 15.175781 39.269531 15.351562 39.6875 C 15.492188 40.027344 14.679688 40.882812 10.914062 43.0625 Z M 10.914062 43.0625 " fill-opacity="1" fill-rule="nonzero"/></g><path fill="#6f9134" d="M 13.058594 47.683594 C 12.699219 47.140625 12.363281 46.558594 12.054688 45.9375 C 11.984375 45.796875 11.90625 45.628906 11.820312 45.441406 C 13.929688 44.5625 14.925781 43.996094 15.171875 44.28125 C 15.378906 44.523438 15.039062 45.355469 13.058594 47.683594 Z M 13.058594 47.683594 " fill-opacity="1" fill-rule="nonzero"/><path fill="#6f9134" d="M 37.058594 46 C 35.675781 45.796875 34.96875 45.707031 34.921875 45.414062 C 34.886719 45.203125 35.230469 44.882812 36.410156 44.40625 C 36.429688 44.449219 36.457031 44.492188 36.480469 44.527344 C 36.746094 45.003906 36.9375 45.496094 37.058594 46 Z M 37.058594 46 " fill-opacity="1" fill-rule="nonzero"/><path fill="#6f9134" d="M 37.21875 47.152344 C 37.246094 47.730469 37.191406 48.316406 37.074219 48.898438 C 35.886719 48.097656 35.273438 47.703125 35.359375 47.417969 C 35.425781 47.203125 35.886719 47.066406 37.21875 47.152344 Z M 37.21875 47.152344 " fill-opacity="1" fill-rule="nonzero"/><path fill="#6f9134" d="M 36.742188 50.070312 C 36.558594 50.585938 36.332031 51.085938 36.0625 51.558594 C 35.296875 50.539062 34.898438 50.019531 35.066406 49.792969 C 35.1875 49.617188 35.632812 49.628906 36.742188 50.070312 Z M 36.742188 50.070312 " fill-opacity="1" fill-rule="nonzero"/><path fill="#97be48" d="M 25.085938 34.03125 C 25.292969 34.355469 24.839844 34.722656 24.410156 36.109375 C 24.164062 36.898438 23.886719 37.785156 24.199219 38.03125 C 24.628906 38.363281 25.578125 37.09375 26.710938 37.355469 C 27.640625 37.566406 28.367188 38.738281 28.113281 39.238281 C 27.976562 39.507812 27.621094 39.457031 25.40625 39.515625 C 23.628906 39.558594 23.324219 39.605469 22.929688 39.324219 C 22.273438 38.855469 22.128906 38.039062 22.019531 37.394531 C 21.910156 36.757812 21.664062 35.320312 22.578125 34.441406 C 23.378906 33.679688 24.808594 33.585938 25.085938 34.03125 Z M 25.085938 34.03125 " fill-opacity="1" fill-rule="nonzero"/><g clip-path="url(#5a13416d27)"><path fill="#6f9134" d="M 55.117188 35.894531 C 55.085938 35.992188 55.050781 36.089844 55.011719 36.183594 C 54.933594 36.378906 54.847656 36.574219 54.746094 36.757812 C 52.921875 37.117188 51.039062 37.09375 49.21875 36.679688 C 48.734375 36.574219 48.941406 35.835938 49.421875 35.945312 C 51.300781 36.367188 53.246094 36.347656 55.117188 35.894531 Z M 55.117188 35.894531 " fill-opacity="1" fill-rule="nonzero"/></g><g fill="#ffffff" fill-opacity="1"><g transform="translate(60.217453, 41.395403)"><g><path d="M 12.453125 -5.78125 C 12.453125 -3.863281 11.8125 -2.375 10.53125 -1.3125 C 9.25 -0.257812 7.453125 0.265625 5.140625 0.265625 C 4.171875 0.265625 3.320312 0.195312 2.59375 0.0625 C 1.863281 -0.0625 1.175781 -0.28125 0.53125 -0.59375 L 0.53125 -2.90625 C 2 -2.144531 3.546875 -1.765625 5.171875 -1.765625 C 6.640625 -1.765625 7.804688 -2.101562 8.671875 -2.78125 C 9.535156 -3.46875 9.96875 -4.410156 9.96875 -5.609375 C 9.96875 -6.328125 9.726562 -6.953125 9.25 -7.484375 C 8.769531 -8.023438 7.878906 -8.664062 6.578125 -9.40625 C 5.210938 -10.175781 4.265625 -10.945312 3.734375 -11.71875 C 3.203125 -12.5 2.9375 -13.414062 2.9375 -14.46875 C 2.9375 -16.164062 3.535156 -17.546875 4.734375 -18.609375 C 5.929688 -19.679688 7.507812 -20.21875 9.46875 -20.21875 C 10.363281 -20.21875 11.195312 -20.128906 11.96875 -19.953125 C 12.75 -19.785156 13.570312 -19.492188 14.4375 -19.078125 L 13.53125 -17.03125 C 12.9375 -17.375 12.265625 -17.644531 11.515625 -17.84375 C 10.773438 -18.039062 10.09375 -18.140625 9.46875 -18.140625 C 8.25 -18.140625 7.265625 -17.820312 6.515625 -17.1875 C 5.773438 -16.5625 5.40625 -15.707031 5.40625 -14.625 C 5.40625 -14.132812 5.484375 -13.710938 5.640625 -13.359375 C 5.796875 -13.015625 6.039062 -12.6875 6.375 -12.375 C 6.71875 -12.070312 7.363281 -11.640625 8.3125 -11.078125 C 9.65625 -10.285156 10.554688 -9.660156 11.015625 -9.203125 C 11.484375 -8.742188 11.835938 -8.238281 12.078125 -7.6875 C 12.328125 -7.144531 12.453125 -6.507812 12.453125 -5.78125 Z M 12.453125 -5.78125 "/></g></g><g transform="translate(74.231079, 41.395403)"><g><path d="M 9.9375 0 L 11.953125 -9.4375 C 12.117188 -10.289062 12.203125 -10.90625 12.203125 -11.28125 C 12.203125 -12.625 11.535156 -13.296875 10.203125 -13.296875 C 9.390625 -13.296875 8.597656 -13.023438 7.828125 -12.484375 C 7.066406 -11.953125 6.390625 -11.171875 5.796875 -10.140625 C 5.210938 -9.117188 4.769531 -7.890625 4.46875 -6.453125 L 3.09375 0 L 0.796875 0 L 5.296875 -21.21875 L 7.59375 -21.21875 C 7.425781 -20.46875 7.269531 -19.742188 7.125 -19.046875 C 6.976562 -18.347656 6.820312 -17.632812 6.65625 -16.90625 C 6.5 -16.1875 6.328125 -15.429688 6.140625 -14.640625 C 5.953125 -13.847656 5.738281 -12.988281 5.5 -12.0625 L 5.640625 -12.0625 C 6.492188 -13.1875 7.335938 -13.988281 8.171875 -14.46875 C 9.003906 -14.945312 9.875 -15.1875 10.78125 -15.1875 C 11.96875 -15.1875 12.882812 -14.859375 13.53125 -14.203125 C 14.1875 -13.546875 14.515625 -12.617188 14.515625 -11.421875 C 14.515625 -10.859375 14.410156 -10.101562 14.203125 -9.15625 C 13.847656 -7.40625 13.191406 -4.351562 12.234375 0 Z M 9.9375 0 "/></g></g><g transform="translate(90.344022, 41.395403)"><g><path d="M 8.765625 -15.140625 C 10.492188 -15.140625 11.859375 -14.625 12.859375 -13.59375 C 13.859375 -12.570312 14.359375 -11.164062 14.359375 -9.375 C 14.359375 -7.664062 14.03125 -6.050781 13.375 -4.53125 C 12.71875 -3.019531 11.832031 -1.847656 10.71875 -1.015625 C 9.601562 -0.191406 8.335938 0.21875 6.921875 0.21875 C 5.179688 0.21875 3.816406 -0.289062 2.828125 -1.3125 C 1.835938 -2.34375 1.34375 -3.75 1.34375 -5.53125 C 1.34375 -7.257812 1.671875 -8.882812 2.328125 -10.40625 C 2.992188 -11.925781 3.890625 -13.09375 5.015625 -13.90625 C 6.140625 -14.726562 7.390625 -15.140625 8.765625 -15.140625 Z M 11.984375 -9.6875 C 11.984375 -10.738281 11.695312 -11.585938 11.125 -12.234375 C 10.5625 -12.890625 9.796875 -13.21875 8.828125 -13.21875 C 7.828125 -13.21875 6.929688 -12.878906 6.140625 -12.203125 C 5.359375 -11.523438 4.753906 -10.585938 4.328125 -9.390625 C 3.898438 -8.203125 3.6875 -6.875 3.6875 -5.40625 C 3.6875 -4.21875 3.972656 -3.296875 4.546875 -2.640625 C 5.117188 -1.992188 5.945312 -1.671875 7.03125 -1.671875 C 7.976562 -1.671875 8.828125 -2.003906 9.578125 -2.671875 C 10.335938 -3.335938 10.925781 -4.28125 11.34375 -5.5 C 11.769531 -6.71875 11.984375 -8.113281 11.984375 -9.6875 Z M 11.984375 -9.6875 "/></g></g><g transform="translate(106.007112, 41.395403)"><g><path d="M 7.4375 0.265625 C 6.550781 0.265625 5.773438 0.0390625 5.109375 -0.40625 C 4.453125 -0.863281 3.941406 -1.5 3.578125 -2.3125 L 3.4375 -2.3125 L 3.375 -1.796875 C 3.351562 -1.566406 3.304688 -1.25 3.234375 -0.84375 C 3.171875 -0.4375 2.648438 2.078125 1.671875 6.703125 L -0.59375 6.703125 L 4 -14.9375 L 5.890625 -14.9375 L 5.53125 -12.09375 L 5.640625 -12.09375 C 7.265625 -14.15625 8.957031 -15.1875 10.71875 -15.1875 C 11.957031 -15.1875 12.9375 -14.742188 13.65625 -13.859375 C 14.375 -12.972656 14.734375 -11.726562 14.734375 -10.125 C 14.734375 -8.195312 14.421875 -6.425781 13.796875 -4.8125 C 13.171875 -3.207031 12.300781 -1.957031 11.1875 -1.0625 C 10.082031 -0.175781 8.832031 0.265625 7.4375 0.265625 Z M 9.96875 -13.296875 C 9.09375 -13.296875 8.203125 -12.863281 7.296875 -12 C 6.390625 -11.132812 5.671875 -10.046875 5.140625 -8.734375 C 4.609375 -7.429688 4.34375 -6.09375 4.34375 -4.71875 C 4.34375 -3.71875 4.59375 -2.953125 5.09375 -2.421875 C 5.601562 -1.890625 6.335938 -1.625 7.296875 -1.625 C 8.191406 -1.625 9.023438 -1.988281 9.796875 -2.71875 C 10.578125 -3.457031 11.203125 -4.503906 11.671875 -5.859375 C 12.148438 -7.222656 12.390625 -8.671875 12.390625 -10.203125 C 12.390625 -12.265625 11.582031 -13.296875 9.96875 -13.296875 Z M 9.96875 -13.296875 "/></g></g><g transform="translate(122.120056, 41.395403)"><g><path d="M 7.4375 0.265625 C 6.550781 0.265625 5.773438 0.0351562 5.109375 -0.421875 C 4.441406 -0.890625 3.9375 -1.519531 3.59375 -2.3125 L 3.46875 -2.3125 L 2.515625 0 L 0.796875 0 L 5.296875 -21.21875 L 7.59375 -21.21875 C 7.132812 -19.019531 6.78125 -17.332031 6.53125 -16.15625 C 6.28125 -14.988281 5.9375 -13.625 5.5 -12.0625 L 5.609375 -12.0625 C 6.460938 -13.132812 7.300781 -13.921875 8.125 -14.421875 C 8.945312 -14.929688 9.789062 -15.1875 10.65625 -15.1875 C 11.9375 -15.1875 12.9375 -14.734375 13.65625 -13.828125 C 14.375 -12.929688 14.734375 -11.695312 14.734375 -10.125 C 14.734375 -8.226562 14.421875 -6.472656 13.796875 -4.859375 C 13.179688 -3.242188 12.316406 -1.984375 11.203125 -1.078125 C 10.085938 -0.179688 8.832031 0.265625 7.4375 0.265625 Z M 9.96875 -13.296875 C 9.09375 -13.296875 8.203125 -12.863281 7.296875 -12 C 6.390625 -11.132812 5.671875 -10.046875 5.140625 -8.734375 C 4.609375 -7.429688 4.34375 -6.09375 4.34375 -4.71875 C 4.34375 -3.71875 4.59375 -2.953125 5.09375 -2.421875 C 5.601562 -1.890625 6.335938 -1.625 7.296875 -1.625 C 8.191406 -1.625 9.023438 -1.988281 9.796875 -2.71875 C 10.578125 -3.457031 11.203125 -4.503906 11.671875 -5.859375 C 12.148438 -7.222656 12.390625 -8.671875 12.390625 -10.203125 C 12.390625 -12.265625 11.582031 -13.296875 9.96875 -13.296875 Z M 9.96875 -13.296875 "/></g></g><g transform="translate(138.232999, 41.395403)"><g><path d="M 8.765625 -15.140625 C 10.492188 -15.140625 11.859375 -14.625 12.859375 -13.59375 C 13.859375 -12.570312 14.359375 -11.164062 14.359375 -9.375 C 14.359375 -7.664062 14.03125 -6.050781 13.375 -4.53125 C 12.71875 -3.019531 11.832031 -1.847656 10.71875 -1.015625 C 9.601562 -0.191406 8.335938 0.21875 6.921875 0.21875 C 5.179688 0.21875 3.816406 -0.289062 2.828125 -1.3125 C 1.835938 -2.34375 1.34375 -3.75 1.34375 -5.53125 C 1.34375 -7.257812 1.671875 -8.882812 2.328125 -10.40625 C 2.992188 -11.925781 3.890625 -13.09375 5.015625 -13.90625 C 6.140625 -14.726562 7.390625 -15.140625 8.765625 -15.140625 Z M 11.984375 -9.6875 C 11.984375 -10.738281 11.695312 -11.585938 11.125 -12.234375 C 10.5625 -12.890625 9.796875 -13.21875 8.828125 -13.21875 C 7.828125 -13.21875 6.929688 -12.878906 6.140625 -12.203125 C 5.359375 -11.523438 4.753906 -10.585938 4.328125 -9.390625 C 3.898438 -8.203125 3.6875 -6.875 3.6875 -5.40625 C 3.6875 -4.21875 3.972656 -3.296875 4.546875 -2.640625 C 5.117188 -1.992188 5.945312 -1.671875 7.03125 -1.671875 C 7.976562 -1.671875 8.828125 -2.003906 9.578125 -2.671875 C 10.335938 -3.335938 10.925781 -4.28125 11.34375 -5.5 C 11.769531 -6.71875 11.984375 -8.113281 11.984375 -9.6875 Z M 11.984375 -9.6875 "/></g></g><g transform="translate(153.896089, 41.395403)"><g><path d="M 5.390625 -1.59375 C 5.890625 -1.59375 6.539062 -1.710938 7.34375 -1.953125 L 7.34375 -0.1875 C 7.039062 -0.0625 6.660156 0.0390625 6.203125 0.125 C 5.742188 0.21875 5.378906 0.265625 5.109375 0.265625 C 3.972656 0.265625 3.101562 0 2.5 -0.53125 C 1.894531 -1.070312 1.59375 -1.878906 1.59375 -2.953125 C 1.59375 -3.554688 1.675781 -4.238281 1.84375 -5 L 3.578125 -13.21875 L 1.234375 -13.21875 L 1.421875 -14.203125 L 3.9375 -15.265625 L 5.640625 -18.375 L 6.984375 -18.375 L 6.234375 -14.9375 L 9.96875 -14.9375 L 9.609375 -13.21875 L 5.890625 -13.21875 L 4.125 -4.96875 C 3.96875 -4.1875 3.890625 -3.585938 3.890625 -3.171875 C 3.890625 -2.660156 4.019531 -2.269531 4.28125 -2 C 4.539062 -1.726562 4.910156 -1.59375 5.390625 -1.59375 Z M 5.390625 -1.59375 "/></g></g><g transform="translate(162.947692, 41.395403)"><g><path d="M -1.421875 6.703125 C -2.046875 6.703125 -2.613281 6.609375 -3.125 6.421875 L -3.125 4.5 C -2.539062 4.695312 -2.03125 4.796875 -1.59375 4.796875 C -0.90625 4.796875 -0.375 4.515625 0 3.953125 C 0.375 3.390625 0.675781 2.585938 0.90625 1.546875 L 4 -13.21875 L 1.359375 -13.21875 L 1.546875 -14.125 L 4.34375 -15.03125 L 4.65625 -16.390625 C 5.082031 -18.203125 5.664062 -19.484375 6.40625 -20.234375 C 7.144531 -20.984375 8.238281 -21.359375 9.6875 -21.359375 C 10.050781 -21.359375 10.5 -21.304688 11.03125 -21.203125 C 11.5625 -21.097656 11.96875 -20.984375 12.25 -20.859375 L 11.671875 -19.09375 C 10.984375 -19.363281 10.359375 -19.5 9.796875 -19.5 C 9.003906 -19.5 8.394531 -19.273438 7.96875 -18.828125 C 7.550781 -18.390625 7.210938 -17.585938 6.953125 -16.421875 L 6.609375 -14.9375 L 9.859375 -14.9375 L 9.515625 -13.21875 L 6.28125 -13.21875 L 3.125 1.765625 C 2.769531 3.472656 2.222656 4.722656 1.484375 5.515625 C 0.742188 6.304688 -0.222656 6.703125 -1.421875 6.703125 Z M -1.421875 6.703125 "/></g></g><g transform="translate(171.68576, 41.395403)"><g><path d="M 1.34375 -14.9375 L 3.625 -14.9375 L 4.640625 -7.515625 C 4.722656 -6.890625 4.804688 -5.960938 4.890625 -4.734375 C 4.984375 -3.515625 5.03125 -2.53125 5.03125 -1.78125 L 5.109375 -1.78125 C 5.429688 -2.570312 5.828125 -3.476562 6.296875 -4.5 C 6.765625 -5.53125 7.113281 -6.242188 7.34375 -6.640625 L 11.78125 -14.9375 L 14.203125 -14.9375 L 4.71875 2.53125 C 3.875 4.09375 3.035156 5.175781 2.203125 5.78125 C 1.378906 6.394531 0.382812 6.703125 -0.78125 6.703125 C -1.4375 6.703125 -2.070312 6.609375 -2.6875 6.421875 L -2.6875 4.578125 C -2.113281 4.742188 -1.519531 4.828125 -0.90625 4.828125 C -0.15625 4.828125 0.484375 4.597656 1.015625 4.140625 C 1.546875 3.679688 2.0625 3 2.5625 2.09375 L 3.59375 0.25 Z M 1.34375 -14.9375 "/></g></g><g transform="translate(184.581568, 41.395403)"><g/></g><g transform="translate(191.833756, 41.395403)"><g><path d="M 11.078125 -6.34375 L 4.328125 -6.34375 L 0.984375 0 L -1.59375 0 L 9.296875 -19.9375 L 11.671875 -19.9375 L 14.171875 0 L 11.859375 0 Z M 10.84375 -8.46875 L 10.359375 -12.546875 C 10.140625 -14.171875 10.007812 -15.757812 9.96875 -17.3125 C 9.632812 -16.507812 9.269531 -15.710938 8.875 -14.921875 C 8.476562 -14.140625 7.34375 -11.988281 5.46875 -8.46875 Z M 10.84375 -8.46875 "/></g></g><g transform="translate(207.333262, 41.395403)"><g><path d="M 1.171875 0 L 5.40625 -19.9375 L 7.703125 -19.9375 L 3.46875 0 Z M 1.171875 0 "/></g></g></g></svg>