<svg xmlns="http://www.w3.org/2000/svg" xmlns:xlink="http://www.w3.org/1999/xlink" width="40" zoomAndPan="magnify" viewBox="0 0 30 30.000001" height="40" preserveAspectRatio="xMidYMid meet" version="1.0"><defs><clipPath id="d8e5d56880"><path d="M 12 6 L 26.242188 6 L 26.242188 26.941406 L 12 26.941406 Z M 12 6 " clip-rule="nonzero"/></clipPath><clipPath id="16e3aa3d3d"><path d="M 3.742188 2.261719 L 18 2.261719 L 18 23 L 3.742188 23 Z M 3.742188 2.261719 " clip-rule="nonzero"/></clipPath></defs><g clip-path="url(#d8e5d56880)"><path fill="#ffffff" d="M 26.242188 26.667969 C 25.59375 25.636719 24.945312 24.605469 24.296875 23.574219 L 23.324219 22.027344 L 22.347656 20.484375 L 20.390625 17.398438 L 18.554688 14.507812 L 20.917969 11.035156 L 21.542969 10.125 C 21.75 9.820312 21.957031 9.515625 22.167969 9.210938 L 23.421875 7.394531 L 23.933594 6.660156 L 17.226562 6.617188 L 17.085938 6.867188 C 16.878906 7.238281 16.675781 7.609375 16.472656 7.980469 L 16.320312 8.261719 L 16.171875 8.542969 L 15.867188 9.101562 L 15.269531 10.222656 L 14.964844 10.800781 C 14.851562 10.625 14.734375 10.449219 14.617188 10.273438 L 14.261719 9.738281 L 13.902344 9.207031 L 13.542969 8.679688 L 13.175781 8.148438 C 12.933594 7.796875 12.683594 7.449219 12.433594 7.101562 C 12.414062 7.070312 12.390625 7.066406 12.359375 7.082031 C 12.332031 7.101562 12.324219 7.125 12.34375 7.15625 C 12.523438 7.542969 12.710938 7.925781 12.90625 8.308594 L 13.195312 8.882812 L 13.78125 10.023438 L 14.078125 10.589844 C 14.277344 10.96875 14.480469 11.347656 14.679688 11.722656 L 14.972656 12.265625 L 15.324219 11.71875 C 15.550781 11.359375 15.773438 11 15.996094 10.640625 L 16.667969 9.5625 L 17 9.019531 L 17.328125 8.480469 C 17.496094 8.203125 17.660156 7.929688 17.824219 7.65625 C 17.957031 7.65625 21.964844 7.640625 22.125 7.636719 L 21.433594 8.730469 C 21.238281 9.042969 21.039062 9.351562 20.84375 9.664062 L 20.246094 10.59375 L 17.867188 14.3125 L 17.742188 14.507812 L 17.867188 14.6875 L 19.929688 17.703125 L 22 20.714844 L 23.035156 22.21875 L 24.074219 23.722656 C 24.765625 24.726562 25.460938 25.726562 26.15625 26.726562 C 26.175781 26.753906 26.199219 26.757812 26.226562 26.738281 C 26.253906 26.722656 26.261719 26.699219 26.242188 26.667969 Z M 26.242188 26.667969 " fill-opacity="1" fill-rule="nonzero"/></g><g clip-path="url(#16e3aa3d3d)"><path fill="#ffffff" d="M 17.097656 20.691406 L 16.808594 20.117188 L 16.222656 18.976562 L 15.921875 18.410156 C 15.722656 18.03125 15.523438 17.652344 15.320312 17.277344 L 15.027344 16.734375 L 14.679688 17.28125 C 14.449219 17.640625 14.230469 18 14.003906 18.359375 L 13.335938 19.4375 L 13.003906 19.980469 L 12.835938 20.25 L 12.671875 20.519531 C 12.507812 20.796875 12.34375 21.070312 12.179688 21.347656 C 12.046875 21.347656 8.039062 21.363281 7.878906 21.363281 L 8.566406 20.269531 C 8.761719 19.960938 8.960938 19.648438 9.160156 19.339844 L 9.753906 18.410156 L 12.136719 14.6875 L 12.261719 14.492188 L 12.136719 14.3125 L 10.070312 11.304688 L 8 8.300781 L 6.964844 6.796875 L 5.925781 5.296875 C 5.234375 4.296875 4.542969 3.296875 3.84375 2.300781 C 3.828125 2.273438 3.804688 2.269531 3.777344 2.289062 C 3.746094 2.304688 3.742188 2.328125 3.757812 2.359375 C 4.40625 3.386719 5.054688 4.417969 5.703125 5.445312 L 6.675781 6.988281 L 7.652344 8.53125 L 9.609375 11.609375 L 11.445312 14.496094 L 9.085938 17.964844 L 8.460938 18.878906 C 8.253906 19.179688 8.046875 19.488281 7.835938 19.789062 L 6.578125 21.605469 L 6.070312 22.339844 L 12.777344 22.386719 L 12.917969 22.128906 C 13.125 21.761719 13.328125 21.386719 13.53125 21.015625 L 13.683594 20.738281 L 13.835938 20.457031 L 14.136719 19.898438 L 14.730469 18.78125 L 15.035156 18.203125 L 15.382812 18.730469 L 16.460938 20.324219 L 16.824219 20.851562 C 17.070312 21.203125 17.316406 21.550781 17.570312 21.898438 C 17.589844 21.925781 17.609375 21.929688 17.636719 21.914062 C 17.664062 21.898438 17.671875 21.875 17.65625 21.847656 C 17.476562 21.460938 17.289062 21.074219 17.097656 20.691406 Z M 17.097656 20.691406 " fill-opacity="1" fill-rule="nonzero"/></g></svg>