<svg xmlns="http://www.w3.org/2000/svg" xmlns:xlink="http://www.w3.org/1999/xlink" width="40" zoomAndPan="magnify" viewBox="0 0 30 30.000001" height="40" preserveAspectRatio="xMidYMid meet" version="1.0"><defs><clipPath id="f82937b94d"><path d="M 4.03125 3.546875 L 25.804688 3.546875 L 25.804688 25.320312 L 4.03125 25.320312 Z M 4.03125 3.546875 " clip-rule="nonzero"/></clipPath></defs><g clip-path="url(#f82937b94d)"><path fill="#ffffff" d="M 14.996094 3.546875 C 8.9375 3.546875 4.03125 8.453125 4.03125 14.511719 C 4.03125 20.570312 8.9375 25.480469 14.996094 25.480469 C 21.054688 25.480469 25.960938 20.570312 25.960938 14.511719 C 25.953125 8.453125 21.042969 3.546875 14.996094 3.546875 Z M 21.308594 17.578125 C 21.1875 18.386719 20.484375 18.976562 19.667969 18.976562 L 10.316406 18.976562 C 9.5 18.976562 8.796875 18.386719 8.671875 17.578125 C 8.558594 16.828125 8.445312 15.785156 8.433594 14.503906 C 8.445312 13.222656 8.550781 12.1875 8.671875 11.425781 C 8.796875 10.621094 9.5 10.03125 10.316406 10.03125 L 19.667969 10.03125 C 20.484375 10.03125 21.1875 10.621094 21.308594 11.425781 C 21.425781 12.175781 21.539062 13.222656 21.546875 14.503906 C 21.539062 15.785156 21.425781 16.828125 21.308594 17.578125 Z M 21.308594 17.578125 " fill-opacity="1" fill-rule="nonzero"/></g><path fill="#ffffff" d="M 13.609375 12.726562 L 13.609375 16.289062 L 16.921875 14.511719 Z M 13.609375 12.726562 " fill-opacity="1" fill-rule="nonzero"/></svg>